%FSLAX44Y44*%
%MOMM*%
G71*
G01*
G75*
G04 Layer_Color=2752767*
%ADD10C,0.2000*%
%ADD11C,0.3000*%
%ADD12C,0.6000*%
%ADD13C,0.8000*%
%ADD14C,1.0000*%
%ADD15C,0.5000*%
%ADD16C,0.2032*%
%ADD17R,1.5000X1.5000*%
%ADD18C,1.5000*%
%ADD19C,0.9144*%
%ADD20R,2.5000X3.8000*%
%ADD21R,3.8000X2.5000*%
%ADD22R,1.5000X1.5000*%
%ADD23C,1.0000*%
%ADD24C,0.6096*%
%ADD25C,0.6350*%
%ADD26C,0.2500*%
%ADD27C,0.2540*%
%ADD28C,0.1540*%
%ADD29R,1.7032X1.7032*%
%ADD30C,1.7032*%
%ADD31R,2.7032X4.0032*%
%ADD32R,4.0032X2.7032*%
%ADD33R,1.7032X1.7032*%
%ADD34C,0.1270*%
%ADD35C,0.1693*%
%ADD36C,0.4064*%
%ADD37C,0.3556*%
D16*
X736192Y254000D02*
X735665Y256479D01*
X734175Y258530D01*
X731980Y259797D01*
X729459Y260062D01*
X727048Y259279D01*
X725164Y257583D01*
X724133Y255267D01*
Y252732D01*
X725164Y250417D01*
X727048Y248720D01*
X729459Y247937D01*
X731980Y248202D01*
X734175Y249470D01*
X735665Y251520D01*
X736192Y254000D01*
D27*
X692500Y35235D02*
Y20000D01*
X700117D01*
X702657Y22539D01*
Y32696D01*
X700117Y35235D01*
X692500D01*
X707735Y30157D02*
Y20000D01*
Y25078D01*
X710274Y27617D01*
X712813Y30157D01*
X715353D01*
X722970Y20000D02*
X728048D01*
X725509D01*
Y30157D01*
X722970D01*
X735666Y20000D02*
X740744D01*
X738205D01*
Y35235D01*
X735666D01*
X748362Y20000D02*
X753440D01*
X750901D01*
Y35235D01*
X748362D01*
X776293D02*
Y20000D01*
X783910D01*
X786450Y22539D01*
Y32696D01*
X783910Y35235D01*
X776293D01*
X791528Y30157D02*
Y20000D01*
Y25078D01*
X794067Y27617D01*
X796606Y30157D01*
X799145D01*
X809302D02*
X814380D01*
X816920Y27617D01*
Y20000D01*
X809302D01*
X806763Y22539D01*
X809302Y25078D01*
X816920D01*
X821998Y30157D02*
Y22539D01*
X824537Y20000D01*
X827076Y22539D01*
X829616Y20000D01*
X832155Y22539D01*
Y30157D01*
X837233Y20000D02*
X842311D01*
X839772D01*
Y30157D01*
X837233D01*
X849929Y20000D02*
Y30157D01*
X857546D01*
X860086Y27617D01*
Y20000D01*
X870242Y14921D02*
X872782D01*
X875321Y17461D01*
Y30157D01*
X867703D01*
X865164Y27617D01*
Y22539D01*
X867703Y20000D01*
X875321D01*
X880399D02*
Y22539D01*
X882938D01*
Y20000D01*
X880399D01*
X862141Y276860D02*
X851984D01*
X862141Y287017D01*
Y289556D01*
X859602Y292095D01*
X854524D01*
X851984Y289556D01*
X874837Y276860D02*
Y292095D01*
X867219Y284477D01*
X877376D01*
X1028721Y289556D02*
X1031260Y292095D01*
X1036339D01*
X1038878Y289556D01*
Y279399D01*
X1036339Y276860D01*
X1031260D01*
X1028721Y279399D01*
Y289556D01*
X1043956Y276860D02*
Y279399D01*
X1046495D01*
Y276860D01*
X1043956D01*
X1064270D02*
Y292095D01*
X1056652Y284477D01*
X1066809D01*
X1071887Y289556D02*
X1074426Y292095D01*
X1079505D01*
X1082044Y289556D01*
Y279399D01*
X1079505Y276860D01*
X1074426D01*
X1071887Y279399D01*
Y289556D01*
X1097279Y292095D02*
X1092200Y289556D01*
X1087122Y284477D01*
Y279399D01*
X1089661Y276860D01*
X1094740D01*
X1097279Y279399D01*
Y281938D01*
X1094740Y284477D01*
X1087122D01*
X1109975Y276860D02*
Y292095D01*
X1102357Y284477D01*
X1112514D01*
X1117592Y276860D02*
Y287017D01*
X1120132D01*
X1122671Y284477D01*
Y276860D01*
Y284477D01*
X1125210Y287017D01*
X1127749Y284477D01*
Y276860D01*
X1132827D02*
Y287017D01*
X1135367D01*
X1137906Y284477D01*
Y276860D01*
Y284477D01*
X1140445Y287017D01*
X1142984Y284477D01*
Y276860D01*
X1168376D02*
X1163298Y281938D01*
Y287017D01*
X1168376Y292095D01*
X1175993Y276860D02*
X1181072D01*
X1178533D01*
Y292095D01*
X1175993Y289556D01*
X1198846Y292095D02*
X1193768Y289556D01*
X1188689Y284477D01*
Y279399D01*
X1191228Y276860D01*
X1196307D01*
X1198846Y279399D01*
Y281938D01*
X1196307Y284477D01*
X1188689D01*
X1203924Y276860D02*
Y287017D01*
X1206464D01*
X1209003Y284477D01*
Y276860D01*
Y284477D01*
X1211542Y287017D01*
X1214081Y284477D01*
Y276860D01*
X1219159D02*
X1224238D01*
X1221699D01*
Y287017D01*
X1219159D01*
X1231855Y276860D02*
X1236934D01*
X1234395D01*
Y292095D01*
X1231855D01*
X1244551Y276860D02*
X1249630Y281938D01*
Y287017D01*
X1244551Y292095D01*
X1967231Y276860D02*
Y292095D01*
X1974848D01*
X1977388Y289556D01*
Y284477D01*
X1974848Y281938D01*
X1967231D01*
X1982466Y292095D02*
X1992623D01*
X1987544D01*
Y276860D01*
X1997701Y292095D02*
Y276860D01*
Y284477D01*
X2007858D01*
Y292095D01*
Y276860D01*
X2095215D02*
Y292095D01*
X2102833D01*
X2105372Y289556D01*
Y284477D01*
X2102833Y281938D01*
X2095215D01*
X2100294D02*
X2105372Y276860D01*
X2112990D02*
X2118068D01*
X2120607Y279399D01*
Y284477D01*
X2118068Y287017D01*
X2112990D01*
X2110450Y284477D01*
Y279399D01*
X2112990Y276860D01*
X2125685Y287017D02*
Y279399D01*
X2128225Y276860D01*
X2135842D01*
Y287017D01*
X2140921Y276860D02*
Y287017D01*
X2148538D01*
X2151077Y284477D01*
Y276860D01*
X2166312Y292095D02*
Y276860D01*
X2158695D01*
X2156156Y279399D01*
Y284477D01*
X2158695Y287017D01*
X2166312D01*
X851984Y246380D02*
X857063D01*
X854524D01*
Y261615D01*
X851984Y259076D01*
X1028721D02*
X1031260Y261615D01*
X1036339D01*
X1038878Y259076D01*
Y248919D01*
X1036339Y246380D01*
X1031260D01*
X1028721Y248919D01*
Y259076D01*
X1043956Y246380D02*
Y248919D01*
X1046495D01*
Y246380D01*
X1043956D01*
X1066809Y261615D02*
X1061730Y259076D01*
X1056652Y253997D01*
Y248919D01*
X1059191Y246380D01*
X1064270D01*
X1066809Y248919D01*
Y251458D01*
X1064270Y253997D01*
X1056652D01*
X1071887Y259076D02*
X1074426Y261615D01*
X1079505D01*
X1082044Y259076D01*
Y248919D01*
X1079505Y246380D01*
X1074426D01*
X1071887Y248919D01*
Y259076D01*
X1087122Y248919D02*
X1089661Y246380D01*
X1094740D01*
X1097279Y248919D01*
Y259076D01*
X1094740Y261615D01*
X1089661D01*
X1087122Y259076D01*
Y256537D01*
X1089661Y253997D01*
X1097279D01*
X1112514Y261615D02*
X1107436Y259076D01*
X1102357Y253997D01*
Y248919D01*
X1104896Y246380D01*
X1109975D01*
X1112514Y248919D01*
Y251458D01*
X1109975Y253997D01*
X1102357D01*
X1117592Y246380D02*
Y256537D01*
X1120132D01*
X1122671Y253997D01*
Y246380D01*
Y253997D01*
X1125210Y256537D01*
X1127749Y253997D01*
Y246380D01*
X1132827D02*
Y256537D01*
X1135367D01*
X1137906Y253997D01*
Y246380D01*
Y253997D01*
X1140445Y256537D01*
X1142984Y253997D01*
Y246380D01*
X1168376D02*
X1163298Y251458D01*
Y256537D01*
X1168376Y261615D01*
X1186150Y246380D02*
X1175993D01*
X1186150Y256537D01*
Y259076D01*
X1183611Y261615D01*
X1178533D01*
X1175993Y259076D01*
X1198846Y246380D02*
Y261615D01*
X1191228Y253997D01*
X1201385D01*
X1206464Y246380D02*
Y256537D01*
X1209003D01*
X1211542Y253997D01*
Y246380D01*
Y253997D01*
X1214081Y256537D01*
X1216620Y253997D01*
Y246380D01*
X1221699D02*
X1226777D01*
X1224238D01*
Y256537D01*
X1221699D01*
X1234395Y246380D02*
X1239473D01*
X1236934D01*
Y261615D01*
X1234395D01*
X1247090Y246380D02*
X1252169Y251458D01*
Y256537D01*
X1247090Y261615D01*
X1967231Y246380D02*
Y261615D01*
X1974848D01*
X1977388Y259076D01*
Y253997D01*
X1974848Y251458D01*
X1967231D01*
X1982466Y261615D02*
X1992623D01*
X1987544D01*
Y246380D01*
X1997701Y261615D02*
Y246380D01*
Y253997D01*
X2007858D01*
Y261615D01*
Y246380D01*
X2095215D02*
Y261615D01*
X2102833D01*
X2105372Y259076D01*
Y253997D01*
X2102833Y251458D01*
X2095215D01*
X2100294D02*
X2105372Y246380D01*
X2112990D02*
X2118068D01*
X2120607Y248919D01*
Y253997D01*
X2118068Y256537D01*
X2112990D01*
X2110450Y253997D01*
Y248919D01*
X2112990Y246380D01*
X2125685Y256537D02*
Y248919D01*
X2128225Y246380D01*
X2135842D01*
Y256537D01*
X2140921Y246380D02*
Y256537D01*
X2148538D01*
X2151077Y253997D01*
Y246380D01*
X2166312Y261615D02*
Y246380D01*
X2158695D01*
X2156156Y248919D01*
Y253997D01*
X2158695Y256537D01*
X2166312D01*
X851984Y215900D02*
X857063D01*
X854524D01*
Y231135D01*
X851984Y228596D01*
X874837Y215900D02*
X864680D01*
X874837Y226056D01*
Y228596D01*
X872298Y231135D01*
X867219D01*
X864680Y228596D01*
X1028721D02*
X1031260Y231135D01*
X1036339D01*
X1038878Y228596D01*
Y218439D01*
X1036339Y215900D01*
X1031260D01*
X1028721Y218439D01*
Y228596D01*
X1043956Y215900D02*
Y218439D01*
X1046495D01*
Y215900D01*
X1043956D01*
X1056652Y228596D02*
X1059191Y231135D01*
X1064270D01*
X1066809Y228596D01*
Y226056D01*
X1064270Y223517D01*
X1066809Y220978D01*
Y218439D01*
X1064270Y215900D01*
X1059191D01*
X1056652Y218439D01*
Y220978D01*
X1059191Y223517D01*
X1056652Y226056D01*
Y228596D01*
X1059191Y223517D02*
X1064270D01*
X1071887Y215900D02*
Y226056D01*
X1074426D01*
X1076965Y223517D01*
Y215900D01*
Y223517D01*
X1079505Y226056D01*
X1082044Y223517D01*
Y215900D01*
X1087122D02*
Y226056D01*
X1089661D01*
X1092200Y223517D01*
Y215900D01*
Y223517D01*
X1094740Y226056D01*
X1097279Y223517D01*
Y215900D01*
X1122671D02*
X1117592Y220978D01*
Y226056D01*
X1122671Y231135D01*
X1130288Y228596D02*
X1132827Y231135D01*
X1137906D01*
X1140445Y228596D01*
Y226056D01*
X1137906Y223517D01*
X1135367D01*
X1137906D01*
X1140445Y220978D01*
Y218439D01*
X1137906Y215900D01*
X1132827D01*
X1130288Y218439D01*
X1145523Y215900D02*
X1150602D01*
X1148062D01*
Y231135D01*
X1145523Y228596D01*
X1158219Y215900D02*
Y218439D01*
X1160758D01*
Y215900D01*
X1158219D01*
X1178533D02*
Y231135D01*
X1170915Y223517D01*
X1181072D01*
X1186150Y218439D02*
X1188689Y215900D01*
X1193768D01*
X1196307Y218439D01*
Y228596D01*
X1193768Y231135D01*
X1188689D01*
X1186150Y228596D01*
Y226056D01*
X1188689Y223517D01*
X1196307D01*
X1211542Y231135D02*
X1206463Y228596D01*
X1201385Y223517D01*
Y218439D01*
X1203924Y215900D01*
X1209003D01*
X1211542Y218439D01*
Y220978D01*
X1209003Y223517D01*
X1201385D01*
X1216620Y215900D02*
Y226056D01*
X1219159D01*
X1221699Y223517D01*
Y215900D01*
Y223517D01*
X1224238Y226056D01*
X1226777Y223517D01*
Y215900D01*
X1231855D02*
X1236934D01*
X1234395D01*
Y226056D01*
X1231855D01*
X1244551Y215900D02*
X1249630D01*
X1247090D01*
Y231135D01*
X1244551D01*
X1257247Y215900D02*
X1262325Y220978D01*
Y226056D01*
X1257247Y231135D01*
X1967231Y215900D02*
Y231135D01*
X1974848D01*
X1977388Y228596D01*
Y223517D01*
X1974848Y220978D01*
X1967231D01*
X1982466Y231135D02*
X1992623D01*
X1987544D01*
Y215900D01*
X1997701Y231135D02*
Y215900D01*
Y223517D01*
X2007858D01*
Y231135D01*
Y215900D01*
X2095215D02*
Y231135D01*
X2102833D01*
X2105372Y228596D01*
Y223517D01*
X2102833Y220978D01*
X2095215D01*
X2100294D02*
X2105372Y215900D01*
X2112990D02*
X2118068D01*
X2120607Y218439D01*
Y223517D01*
X2118068Y226056D01*
X2112990D01*
X2110450Y223517D01*
Y218439D01*
X2112990Y215900D01*
X2125685Y226056D02*
Y218439D01*
X2128225Y215900D01*
X2135842D01*
Y226056D01*
X2140921Y215900D02*
Y226056D01*
X2148538D01*
X2151077Y223517D01*
Y215900D01*
X2166312Y231135D02*
Y215900D01*
X2158695D01*
X2156156Y218439D01*
Y223517D01*
X2158695Y226056D01*
X2166312D01*
X851984Y198116D02*
X854524Y200655D01*
X859602D01*
X862141Y198116D01*
Y195576D01*
X859602Y193037D01*
X857063D01*
X859602D01*
X862141Y190498D01*
Y187959D01*
X859602Y185420D01*
X854524D01*
X851984Y187959D01*
X867219Y185420D02*
X872298D01*
X869759D01*
Y200655D01*
X867219Y198116D01*
X879915Y185420D02*
X884994D01*
X882455D01*
Y200655D01*
X879915Y198116D01*
X1028721D02*
X1031260Y200655D01*
X1036339D01*
X1038878Y198116D01*
Y187959D01*
X1036339Y185420D01*
X1031260D01*
X1028721Y187959D01*
Y198116D01*
X1043956Y185420D02*
Y187959D01*
X1046495D01*
Y185420D01*
X1043956D01*
X1056652Y187959D02*
X1059191Y185420D01*
X1064270D01*
X1066809Y187959D01*
Y198116D01*
X1064270Y200655D01*
X1059191D01*
X1056652Y198116D01*
Y195576D01*
X1059191Y193037D01*
X1066809D01*
X1071887Y185420D02*
Y195576D01*
X1074426D01*
X1076965Y193037D01*
Y185420D01*
Y193037D01*
X1079505Y195576D01*
X1082044Y193037D01*
Y185420D01*
X1087122D02*
Y195576D01*
X1089661D01*
X1092200Y193037D01*
Y185420D01*
Y193037D01*
X1094740Y195576D01*
X1097279Y193037D01*
Y185420D01*
X1122671D02*
X1117592Y190498D01*
Y195576D01*
X1122671Y200655D01*
X1130288Y198116D02*
X1132827Y200655D01*
X1137906D01*
X1140445Y198116D01*
Y195576D01*
X1137906Y193037D01*
X1135367D01*
X1137906D01*
X1140445Y190498D01*
Y187959D01*
X1137906Y185420D01*
X1132827D01*
X1130288Y187959D01*
X1155680Y200655D02*
X1145523D01*
Y193037D01*
X1150602Y195576D01*
X1153141D01*
X1155680Y193037D01*
Y187959D01*
X1153141Y185420D01*
X1148062D01*
X1145523Y187959D01*
X1160758Y185420D02*
Y187959D01*
X1163298D01*
Y185420D01*
X1160758D01*
X1181072D02*
Y200655D01*
X1173454Y193037D01*
X1183611D01*
X1188689Y198116D02*
X1191228Y200655D01*
X1196307D01*
X1198846Y198116D01*
Y195576D01*
X1196307Y193037D01*
X1193768D01*
X1196307D01*
X1198846Y190498D01*
Y187959D01*
X1196307Y185420D01*
X1191228D01*
X1188689Y187959D01*
X1203924Y198116D02*
X1206464Y200655D01*
X1211542D01*
X1214081Y198116D01*
Y195576D01*
X1211542Y193037D01*
X1209003D01*
X1211542D01*
X1214081Y190498D01*
Y187959D01*
X1211542Y185420D01*
X1206464D01*
X1203924Y187959D01*
X1219159Y185420D02*
Y195576D01*
X1221699D01*
X1224238Y193037D01*
Y185420D01*
Y193037D01*
X1226777Y195576D01*
X1229316Y193037D01*
Y185420D01*
X1234395D02*
X1239473D01*
X1236934D01*
Y195576D01*
X1234395D01*
X1247090Y185420D02*
X1252169D01*
X1249630D01*
Y200655D01*
X1247090D01*
X1259786Y185420D02*
X1264865Y190498D01*
Y195576D01*
X1259786Y200655D01*
X1967231Y185420D02*
Y200655D01*
X1974848D01*
X1977388Y198116D01*
Y193037D01*
X1974848Y190498D01*
X1967231D01*
X1982466Y200655D02*
X1992623D01*
X1987544D01*
Y185420D01*
X1997701Y200655D02*
Y185420D01*
Y193037D01*
X2007858D01*
Y200655D01*
Y185420D01*
X2095215D02*
Y200655D01*
X2102833D01*
X2105372Y198116D01*
Y193037D01*
X2102833Y190498D01*
X2095215D01*
X2100294D02*
X2105372Y185420D01*
X2112990D02*
X2118068D01*
X2120607Y187959D01*
Y193037D01*
X2118068Y195576D01*
X2112990D01*
X2110450Y193037D01*
Y187959D01*
X2112990Y185420D01*
X2125685Y195576D02*
Y187959D01*
X2128225Y185420D01*
X2135842D01*
Y195576D01*
X2140921Y185420D02*
Y195576D01*
X2148538D01*
X2151077Y193037D01*
Y185420D01*
X2166312Y200655D02*
Y185420D01*
X2158695D01*
X2156156Y187959D01*
Y193037D01*
X2158695Y195576D01*
X2166312D01*
X851984Y167636D02*
X854524Y170175D01*
X859602D01*
X862141Y167636D01*
Y165096D01*
X859602Y162557D01*
X857063D01*
X859602D01*
X862141Y160018D01*
Y157479D01*
X859602Y154940D01*
X854524D01*
X851984Y157479D01*
X1028721Y154940D02*
X1033799D01*
X1031260D01*
Y170175D01*
X1028721Y167636D01*
X1041417Y154940D02*
Y157479D01*
X1043956D01*
Y154940D01*
X1041417D01*
X1064270D02*
X1054113D01*
X1064270Y165096D01*
Y167636D01*
X1061730Y170175D01*
X1056652D01*
X1054113Y167636D01*
X1069348Y154940D02*
Y165096D01*
X1071887D01*
X1074426Y162557D01*
Y154940D01*
Y162557D01*
X1076965Y165096D01*
X1079505Y162557D01*
Y154940D01*
X1084583D02*
Y165096D01*
X1087122D01*
X1089661Y162557D01*
Y154940D01*
Y162557D01*
X1092200Y165096D01*
X1094740Y162557D01*
Y154940D01*
X1120132D02*
X1115053Y160018D01*
Y165096D01*
X1120132Y170175D01*
X1135367Y154940D02*
Y170175D01*
X1127749Y162557D01*
X1137906D01*
X1142984Y170175D02*
X1153141D01*
Y167636D01*
X1142984Y157479D01*
Y154940D01*
X1158219D02*
Y157479D01*
X1160758D01*
Y154940D01*
X1158219D01*
X1181072D02*
X1170915D01*
X1181072Y165096D01*
Y167636D01*
X1178533Y170175D01*
X1173454D01*
X1170915Y167636D01*
X1193768Y154940D02*
Y170175D01*
X1186150Y162557D01*
X1196307D01*
X1209003Y154940D02*
Y170175D01*
X1201385Y162557D01*
X1211542D01*
X1216620Y154940D02*
Y165096D01*
X1219159D01*
X1221699Y162557D01*
Y154940D01*
Y162557D01*
X1224238Y165096D01*
X1226777Y162557D01*
Y154940D01*
X1231855D02*
X1236934D01*
X1234395D01*
Y165096D01*
X1231855D01*
X1244551Y154940D02*
X1249630D01*
X1247090D01*
Y170175D01*
X1244551D01*
X1257247Y154940D02*
X1262325Y160018D01*
Y165096D01*
X1257247Y170175D01*
X1380153Y154940D02*
X1369996D01*
X1380153Y165096D01*
Y167636D01*
X1377614Y170175D01*
X1372536D01*
X1369996Y167636D01*
X1385231Y154940D02*
Y157479D01*
X1387771D01*
Y154940D01*
X1385231D01*
X1408084Y170175D02*
X1397927D01*
Y162557D01*
X1403006Y165096D01*
X1405545D01*
X1408084Y162557D01*
Y157479D01*
X1405545Y154940D01*
X1400467D01*
X1397927Y157479D01*
X1413163Y154940D02*
Y165096D01*
X1415702D01*
X1418241Y162557D01*
Y154940D01*
Y162557D01*
X1420780Y165096D01*
X1423319Y162557D01*
Y154940D01*
X1428398D02*
Y165096D01*
X1430937D01*
X1433476Y162557D01*
Y154940D01*
Y162557D01*
X1436015Y165096D01*
X1438554Y162557D01*
Y154940D01*
X1463946D02*
X1458868Y160018D01*
Y165096D01*
X1463946Y170175D01*
X1471564Y157479D02*
X1474103Y154940D01*
X1479181D01*
X1481720Y157479D01*
Y167636D01*
X1479181Y170175D01*
X1474103D01*
X1471564Y167636D01*
Y165096D01*
X1474103Y162557D01*
X1481720D01*
X1486799Y167636D02*
X1489338Y170175D01*
X1494416D01*
X1496955Y167636D01*
Y165096D01*
X1494416Y162557D01*
X1496955Y160018D01*
Y157479D01*
X1494416Y154940D01*
X1489338D01*
X1486799Y157479D01*
Y160018D01*
X1489338Y162557D01*
X1486799Y165096D01*
Y167636D01*
X1489338Y162557D02*
X1494416D01*
X1502034Y154940D02*
Y157479D01*
X1504573D01*
Y154940D01*
X1502034D01*
X1522347D02*
Y170175D01*
X1514730Y162557D01*
X1524886D01*
X1540121Y154940D02*
X1529965D01*
X1540121Y165096D01*
Y167636D01*
X1537582Y170175D01*
X1532504D01*
X1529965Y167636D01*
X1555356Y170175D02*
X1545200D01*
Y162557D01*
X1550278Y165096D01*
X1552817D01*
X1555356Y162557D01*
Y157479D01*
X1552817Y154940D01*
X1547739D01*
X1545200Y157479D01*
X1560435Y154940D02*
Y165096D01*
X1562974D01*
X1565513Y162557D01*
Y154940D01*
Y162557D01*
X1568052Y165096D01*
X1570592Y162557D01*
Y154940D01*
X1575670D02*
X1580748D01*
X1578209D01*
Y165096D01*
X1575670D01*
X1588366Y154940D02*
X1593444D01*
X1590905D01*
Y170175D01*
X1588366D01*
X1601062Y154940D02*
X1606140Y160018D01*
Y165096D01*
X1601062Y170175D01*
X1659473Y154940D02*
X1664551D01*
X1662012D01*
Y170175D01*
X1659473Y167636D01*
X1672168Y154940D02*
Y157479D01*
X1674708D01*
Y154940D01*
X1672168D01*
X1684864Y167636D02*
X1687404Y170175D01*
X1692482D01*
X1695021Y167636D01*
Y165096D01*
X1692482Y162557D01*
X1689943D01*
X1692482D01*
X1695021Y160018D01*
Y157479D01*
X1692482Y154940D01*
X1687404D01*
X1684864Y157479D01*
X1700099Y154940D02*
Y165096D01*
X1702639D01*
X1705178Y162557D01*
Y154940D01*
Y162557D01*
X1707717Y165096D01*
X1710256Y162557D01*
Y154940D01*
X1715335D02*
Y165096D01*
X1717874D01*
X1720413Y162557D01*
Y154940D01*
Y162557D01*
X1722952Y165096D01*
X1725491Y162557D01*
Y154940D01*
X1750883D02*
X1745805Y160018D01*
Y165096D01*
X1750883Y170175D01*
X1768657D02*
X1758501D01*
Y162557D01*
X1763579Y165096D01*
X1766118D01*
X1768657Y162557D01*
Y157479D01*
X1766118Y154940D01*
X1761040D01*
X1758501Y157479D01*
X1773736Y154940D02*
X1778814D01*
X1776275D01*
Y170175D01*
X1773736Y167636D01*
X1786432Y154940D02*
Y157479D01*
X1788971D01*
Y154940D01*
X1786432D01*
X1799127D02*
X1804206D01*
X1801667D01*
Y170175D01*
X1799127Y167636D01*
X1811823D02*
X1814362Y170175D01*
X1819441D01*
X1821980Y167636D01*
Y165096D01*
X1819441Y162557D01*
X1821980Y160018D01*
Y157479D01*
X1819441Y154940D01*
X1814362D01*
X1811823Y157479D01*
Y160018D01*
X1814362Y162557D01*
X1811823Y165096D01*
Y167636D01*
X1814362Y162557D02*
X1819441D01*
X1827058Y154940D02*
X1832137D01*
X1829598D01*
Y170175D01*
X1827058Y167636D01*
X1839754Y154940D02*
Y165096D01*
X1842294D01*
X1844833Y162557D01*
Y154940D01*
Y162557D01*
X1847372Y165096D01*
X1849911Y162557D01*
Y154940D01*
X1854989D02*
X1860068D01*
X1857529D01*
Y165096D01*
X1854989D01*
X1867685Y154940D02*
X1872764D01*
X1870224D01*
Y170175D01*
X1867685D01*
X1880381Y154940D02*
X1885459Y160018D01*
Y165096D01*
X1880381Y170175D01*
X1967231Y154940D02*
Y170175D01*
X1974848D01*
X1977388Y167636D01*
Y162557D01*
X1974848Y160018D01*
X1967231D01*
X1982466Y170175D02*
X1992623D01*
X1987544D01*
Y154940D01*
X1997701Y170175D02*
Y154940D01*
Y162557D01*
X2007858D01*
Y170175D01*
Y154940D01*
X2105372Y167636D02*
X2102833Y170175D01*
X2097755D01*
X2095215Y167636D01*
Y165096D01*
X2097755Y162557D01*
X2102833D01*
X2105372Y160018D01*
Y157479D01*
X2102833Y154940D01*
X2097755D01*
X2095215Y157479D01*
X2110450Y154940D02*
X2115529D01*
X2112990D01*
Y170175D01*
X2110450D01*
X2125685Y154940D02*
X2130764D01*
X2133303Y157479D01*
Y162557D01*
X2130764Y165096D01*
X2125685D01*
X2123146Y162557D01*
Y157479D01*
X2125685Y154940D01*
X2140921Y167636D02*
Y165096D01*
X2138381D01*
X2143460D01*
X2140921D01*
Y157479D01*
X2143460Y154940D01*
X851984Y137156D02*
X854524Y139695D01*
X859602D01*
X862141Y137156D01*
Y134616D01*
X859602Y132077D01*
X857063D01*
X859602D01*
X862141Y129538D01*
Y126999D01*
X859602Y124460D01*
X854524D01*
X851984Y126999D01*
X877376Y139695D02*
X867219D01*
Y132077D01*
X872298Y134616D01*
X874837D01*
X877376Y132077D01*
Y126999D01*
X874837Y124460D01*
X869759D01*
X867219Y126999D01*
X882455Y124460D02*
X887533D01*
X884994D01*
Y139695D01*
X882455Y137156D01*
X914965Y139695D02*
X925122D01*
X920043D01*
Y124460D01*
X932739D02*
X937818D01*
X940357Y126999D01*
Y132077D01*
X937818Y134616D01*
X932739D01*
X930200Y132077D01*
Y126999D01*
X932739Y124460D01*
X947974Y137156D02*
Y134616D01*
X945435D01*
X950513D01*
X947974D01*
Y126999D01*
X950513Y124460D01*
X960670Y134616D02*
X965749D01*
X968288Y132077D01*
Y124460D01*
X960670D01*
X958131Y126999D01*
X960670Y129538D01*
X968288D01*
X973366Y124460D02*
X978444D01*
X975905D01*
Y139695D01*
X973366D01*
X1250637Y99058D02*
X1260794D01*
X1250637Y104136D02*
X1260794D01*
X1291264Y106676D02*
X1288725Y109215D01*
X1283647D01*
X1281107Y106676D01*
Y96519D01*
X1283647Y93980D01*
X1288725D01*
X1291264Y96519D01*
X1298882Y104136D02*
X1303960D01*
X1306499Y101597D01*
Y93980D01*
X1298882D01*
X1296343Y96519D01*
X1298882Y99058D01*
X1306499D01*
X1311578Y93980D02*
X1316656D01*
X1314117D01*
Y109215D01*
X1311578D01*
X1334430Y104136D02*
X1326813D01*
X1324274Y101597D01*
Y96519D01*
X1326813Y93980D01*
X1334430D01*
X1339509Y104136D02*
Y96519D01*
X1342048Y93980D01*
X1349665D01*
Y104136D01*
X1354744Y93980D02*
X1359822D01*
X1357283D01*
Y109215D01*
X1354744D01*
X1369979Y104136D02*
X1375057D01*
X1377596Y101597D01*
Y93980D01*
X1369979D01*
X1367440Y96519D01*
X1369979Y99058D01*
X1377596D01*
X1385214Y106676D02*
Y104136D01*
X1382675D01*
X1387753D01*
X1385214D01*
Y96519D01*
X1387753Y93980D01*
X1402988D02*
X1397910D01*
X1395371Y96519D01*
Y101597D01*
X1397910Y104136D01*
X1402988D01*
X1405527Y101597D01*
Y99058D01*
X1395371D01*
X1420762Y109215D02*
Y93980D01*
X1413145D01*
X1410606Y96519D01*
Y101597D01*
X1413145Y104136D01*
X1420762D01*
X1443615Y93980D02*
Y106676D01*
Y101597D01*
X1441076D01*
X1446154D01*
X1443615D01*
Y106676D01*
X1446154Y109215D01*
X1453772Y104136D02*
Y93980D01*
Y99058D01*
X1456311Y101597D01*
X1458850Y104136D01*
X1461389D01*
X1471546Y93980D02*
X1476624D01*
X1479164Y96519D01*
Y101597D01*
X1476624Y104136D01*
X1471546D01*
X1469007Y101597D01*
Y96519D01*
X1471546Y93980D01*
X1484242D02*
Y104136D01*
X1486781D01*
X1489320Y101597D01*
Y93980D01*
Y101597D01*
X1491859Y104136D01*
X1494398Y101597D01*
Y93980D01*
X1517251Y106676D02*
Y104136D01*
X1514712D01*
X1519790D01*
X1517251D01*
Y96519D01*
X1519790Y93980D01*
X1529947D02*
X1535025D01*
X1537565Y96519D01*
Y101597D01*
X1535025Y104136D01*
X1529947D01*
X1527408Y101597D01*
Y96519D01*
X1529947Y93980D01*
X1545182D02*
X1550260D01*
X1552800Y96519D01*
Y101597D01*
X1550260Y104136D01*
X1545182D01*
X1542643Y101597D01*
Y96519D01*
X1545182Y93980D01*
X1557878D02*
X1562956D01*
X1560417D01*
Y109215D01*
X1557878D01*
X1585809Y93980D02*
X1593427D01*
X1595966Y96519D01*
X1593427Y99058D01*
X1588348D01*
X1585809Y101597D01*
X1588348Y104136D01*
X1595966D01*
X1603583Y106676D02*
Y104136D01*
X1601044D01*
X1606122D01*
X1603583D01*
Y96519D01*
X1606122Y93980D01*
X1616279Y104136D02*
X1621357D01*
X1623897Y101597D01*
Y93980D01*
X1616279D01*
X1613740Y96519D01*
X1616279Y99058D01*
X1623897D01*
X1628975Y104136D02*
Y93980D01*
Y99058D01*
X1631514Y101597D01*
X1634053Y104136D01*
X1636593D01*
X1646749Y106676D02*
Y104136D01*
X1644210D01*
X1649288D01*
X1646749D01*
Y96519D01*
X1649288Y93980D01*
X1682298Y104136D02*
X1674680D01*
X1672141Y101597D01*
Y96519D01*
X1674680Y93980D01*
X1682298D01*
X1694994D02*
X1689915D01*
X1687376Y96519D01*
Y101597D01*
X1689915Y104136D01*
X1694994D01*
X1697533Y101597D01*
Y99058D01*
X1687376D01*
X1702611Y93980D02*
Y104136D01*
X1710229D01*
X1712768Y101597D01*
Y93980D01*
X1720385Y106676D02*
Y104136D01*
X1717846D01*
X1722925D01*
X1720385D01*
Y96519D01*
X1722925Y93980D01*
X1730542Y104136D02*
Y93980D01*
Y99058D01*
X1733081Y101597D01*
X1735621Y104136D01*
X1738160D01*
X1753395Y93980D02*
X1748316D01*
X1745777Y96519D01*
Y101597D01*
X1748316Y104136D01*
X1753395D01*
X1755934Y101597D01*
Y99058D01*
X1745777D01*
X1776247Y88901D02*
Y104136D01*
X1783865D01*
X1786404Y101597D01*
Y96519D01*
X1783865Y93980D01*
X1776247D01*
X1794022D02*
X1799100D01*
X1801639Y96519D01*
Y101597D01*
X1799100Y104136D01*
X1794022D01*
X1791482Y101597D01*
Y96519D01*
X1794022Y93980D01*
X1806718D02*
X1814335D01*
X1816874Y96519D01*
X1814335Y99058D01*
X1809257D01*
X1806718Y101597D01*
X1809257Y104136D01*
X1816874D01*
X1821953Y93980D02*
X1827031D01*
X1824492D01*
Y104136D01*
X1821953D01*
X1837188Y106676D02*
Y104136D01*
X1834648D01*
X1839727D01*
X1837188D01*
Y96519D01*
X1839727Y93980D01*
X1847344D02*
X1852423D01*
X1849884D01*
Y104136D01*
X1847344D01*
X1862579Y93980D02*
X1867658D01*
X1870197Y96519D01*
Y101597D01*
X1867658Y104136D01*
X1862579D01*
X1860040Y101597D01*
Y96519D01*
X1862579Y93980D01*
X1875275D02*
Y104136D01*
X1882893D01*
X1885432Y101597D01*
Y93980D01*
X1908285Y106676D02*
Y104136D01*
X1905745D01*
X1910824D01*
X1908285D01*
Y96519D01*
X1910824Y93980D01*
X1920981D02*
X1926059D01*
X1928598Y96519D01*
Y101597D01*
X1926059Y104136D01*
X1920981D01*
X1918441Y101597D01*
Y96519D01*
X1920981Y93980D01*
X1951451Y106676D02*
Y104136D01*
X1948911D01*
X1953990D01*
X1951451D01*
Y96519D01*
X1953990Y93980D01*
X1964147D02*
X1969225D01*
X1971764Y96519D01*
Y101597D01*
X1969225Y104136D01*
X1964147D01*
X1961607Y101597D01*
Y96519D01*
X1964147Y93980D01*
X1979382D02*
X1984460D01*
X1986999Y96519D01*
Y101597D01*
X1984460Y104136D01*
X1979382D01*
X1976842Y101597D01*
Y96519D01*
X1979382Y93980D01*
X1992077D02*
X1997156D01*
X1994617D01*
Y109215D01*
X1992077D01*
X2027626Y93980D02*
X2022548D01*
X2020008Y96519D01*
Y101597D01*
X2022548Y104136D01*
X2027626D01*
X2030165Y101597D01*
Y99058D01*
X2020008D01*
X2035244Y93980D02*
Y104136D01*
X2042861D01*
X2045400Y101597D01*
Y93980D01*
X2060635Y109215D02*
Y93980D01*
X2053018D01*
X2050479Y96519D01*
Y101597D01*
X2053018Y104136D01*
X2060635D01*
X2091105D02*
X2083488D01*
X2080949Y101597D01*
Y96519D01*
X2083488Y93980D01*
X2091105D01*
X2103801D02*
X2098723D01*
X2096184Y96519D01*
Y101597D01*
X2098723Y104136D01*
X2103801D01*
X2106340Y101597D01*
Y99058D01*
X2096184D01*
X2111419Y93980D02*
Y104136D01*
X2119036D01*
X2121576Y101597D01*
Y93980D01*
X2129193Y106676D02*
Y104136D01*
X2126654D01*
X2131732D01*
X2129193D01*
Y96519D01*
X2131732Y93980D01*
X2139350Y104136D02*
Y93980D01*
Y99058D01*
X2141889Y101597D01*
X2144428Y104136D01*
X2146967D01*
X2162202Y93980D02*
X2157124D01*
X2154585Y96519D01*
Y101597D01*
X2157124Y104136D01*
X2162202D01*
X2164742Y101597D01*
Y99058D01*
X2154585D01*
X2185055Y88901D02*
Y104136D01*
X2192673D01*
X2195212Y101597D01*
Y96519D01*
X2192673Y93980D01*
X2185055D01*
X2202829D02*
X2207908D01*
X2210447Y96519D01*
Y101597D01*
X2207908Y104136D01*
X2202829D01*
X2200290Y101597D01*
Y96519D01*
X2202829Y93980D01*
X2215525D02*
X2223143D01*
X2225682Y96519D01*
X2223143Y99058D01*
X2218064D01*
X2215525Y101597D01*
X2218064Y104136D01*
X2225682D01*
X2230760Y93980D02*
X2235839D01*
X2233299D01*
Y104136D01*
X2230760D01*
X2245995Y106676D02*
Y104136D01*
X2243456D01*
X2248535D01*
X2245995D01*
Y96519D01*
X2248535Y93980D01*
X2256152D02*
X2261230D01*
X2258691D01*
Y104136D01*
X2256152D01*
X2271387Y93980D02*
X2276465D01*
X2279005Y96519D01*
Y101597D01*
X2276465Y104136D01*
X2271387D01*
X2268848Y101597D01*
Y96519D01*
X2271387Y93980D01*
X2284083D02*
Y104136D01*
X2291700D01*
X2294240Y101597D01*
Y93980D01*
X2299318D02*
Y96519D01*
X2301857D01*
Y93980D01*
X2299318D01*
X1250637Y68578D02*
X1260794D01*
X1250637Y73657D02*
X1260794D01*
X1281107Y63500D02*
Y78735D01*
X1288725D01*
X1291264Y76196D01*
Y71117D01*
X1288725Y68578D01*
X1281107D01*
X1286186D02*
X1291264Y63500D01*
X1298882D02*
X1303960D01*
X1306499Y66039D01*
Y71117D01*
X1303960Y73657D01*
X1298882D01*
X1296343Y71117D01*
Y66039D01*
X1298882Y63500D01*
X1311578Y73657D02*
Y66039D01*
X1314117Y63500D01*
X1321734D01*
Y73657D01*
X1329352Y76196D02*
Y73657D01*
X1326813D01*
X1331891D01*
X1329352D01*
Y66039D01*
X1331891Y63500D01*
X1354744D02*
Y78735D01*
X1362361D01*
X1364900Y76196D01*
Y71117D01*
X1362361Y68578D01*
X1354744D01*
X1372518Y73657D02*
X1377596D01*
X1380135Y71117D01*
Y63500D01*
X1372518D01*
X1369979Y66039D01*
X1372518Y68578D01*
X1380135D01*
X1387753Y76196D02*
Y73657D01*
X1385214D01*
X1390292D01*
X1387753D01*
Y66039D01*
X1390292Y63500D01*
X1397910Y78735D02*
Y63500D01*
Y71117D01*
X1400449Y73657D01*
X1405527D01*
X1408067Y71117D01*
Y63500D01*
X1428380Y78735D02*
Y63500D01*
X1438537D01*
X1451232D02*
X1446154D01*
X1443615Y66039D01*
Y71117D01*
X1446154Y73657D01*
X1451232D01*
X1453772Y71117D01*
Y68578D01*
X1443615D01*
X1458850Y63500D02*
Y73657D01*
X1466468D01*
X1469007Y71117D01*
Y63500D01*
X1479164Y58421D02*
X1481703D01*
X1484242Y60961D01*
Y73657D01*
X1476624D01*
X1474085Y71117D01*
Y66039D01*
X1476624Y63500D01*
X1484242D01*
X1491859Y76196D02*
Y73657D01*
X1489320D01*
X1494398D01*
X1491859D01*
Y66039D01*
X1494398Y63500D01*
X1502016Y78735D02*
Y63500D01*
Y71117D01*
X1504555Y73657D01*
X1509634D01*
X1512173Y71117D01*
Y63500D01*
X1532486Y71117D02*
X1542643D01*
X1537565Y76196D02*
Y66039D01*
X1562956Y78735D02*
X1573113D01*
X1568035D01*
Y63500D01*
X1580731D02*
X1585809D01*
X1588348Y66039D01*
Y71117D01*
X1585809Y73657D01*
X1580731D01*
X1578191Y71117D01*
Y66039D01*
X1580731Y63500D01*
X1595966D02*
X1601044D01*
X1603583Y66039D01*
Y71117D01*
X1601044Y73657D01*
X1595966D01*
X1593427Y71117D01*
Y66039D01*
X1595966Y63500D01*
X1608662D02*
X1613740D01*
X1611201D01*
Y78735D01*
X1608662D01*
X1646749Y76196D02*
X1644210Y78735D01*
X1639132D01*
X1636593Y76196D01*
Y73657D01*
X1639132Y71117D01*
X1644210D01*
X1646749Y68578D01*
Y66039D01*
X1644210Y63500D01*
X1639132D01*
X1636593Y66039D01*
X1651828Y63500D02*
X1656906D01*
X1654367D01*
Y73657D01*
X1651828D01*
X1664523D02*
X1674680D01*
X1664523Y63500D01*
X1674680D01*
X1687376D02*
X1682298D01*
X1679759Y66039D01*
Y71117D01*
X1682298Y73657D01*
X1687376D01*
X1689915Y71117D01*
Y68578D01*
X1679759D01*
X1710229D02*
X1720385D01*
X1710229Y73657D02*
X1720385D01*
X1750856Y76196D02*
X1748316Y78735D01*
X1743238D01*
X1740699Y76196D01*
Y73657D01*
X1743238Y71117D01*
X1748316D01*
X1750856Y68578D01*
Y66039D01*
X1748316Y63500D01*
X1743238D01*
X1740699Y66039D01*
X1755934Y63500D02*
X1761012D01*
X1758473D01*
Y78735D01*
X1755934D01*
X1771169Y63500D02*
X1776247D01*
X1778786Y66039D01*
Y71117D01*
X1776247Y73657D01*
X1771169D01*
X1768630Y71117D01*
Y66039D01*
X1771169Y63500D01*
X1786404Y76196D02*
Y73657D01*
X1783865D01*
X1788943D01*
X1786404D01*
Y66039D01*
X1788943Y63500D01*
X1811796D02*
X1816874D01*
X1814335D01*
Y78735D01*
X1811796D01*
X1832109Y63500D02*
X1827031D01*
X1824492Y66039D01*
Y71117D01*
X1827031Y73657D01*
X1832109D01*
X1834648Y71117D01*
Y68578D01*
X1824492D01*
X1839727Y63500D02*
Y73657D01*
X1847344D01*
X1849884Y71117D01*
Y63500D01*
X1860040Y58421D02*
X1862579D01*
X1865119Y60961D01*
Y73657D01*
X1857501D01*
X1854962Y71117D01*
Y66039D01*
X1857501Y63500D01*
X1865119D01*
X1872736Y76196D02*
Y73657D01*
X1870197D01*
X1875275D01*
X1872736D01*
Y66039D01*
X1875275Y63500D01*
X1882893Y78735D02*
Y63500D01*
Y71117D01*
X1885432Y73657D01*
X1890510D01*
X1893050Y71117D01*
Y63500D01*
X1915902Y73657D02*
X1920981D01*
X1923520Y71117D01*
Y63500D01*
X1915902D01*
X1913363Y66039D01*
X1915902Y68578D01*
X1923520D01*
X1928598Y63500D02*
X1936216D01*
X1938755Y66039D01*
X1936216Y68578D01*
X1931137D01*
X1928598Y71117D01*
X1931137Y73657D01*
X1938755D01*
X1969225Y78735D02*
Y63500D01*
X1961607D01*
X1959068Y66039D01*
Y71117D01*
X1961607Y73657D01*
X1969225D01*
X1981921Y63500D02*
X1976842D01*
X1974303Y66039D01*
Y71117D01*
X1976842Y73657D01*
X1981921D01*
X1984460Y71117D01*
Y68578D01*
X1974303D01*
X1992077Y63500D02*
Y76196D01*
Y71117D01*
X1989538D01*
X1994617D01*
X1992077D01*
Y76196D01*
X1994617Y78735D01*
X2002234Y63500D02*
X2007313D01*
X2004773D01*
Y73657D01*
X2002234D01*
X2014930Y63500D02*
Y73657D01*
X2022548D01*
X2025087Y71117D01*
Y63500D01*
X2037783D02*
X2032704D01*
X2030165Y66039D01*
Y71117D01*
X2032704Y73657D01*
X2037783D01*
X2040322Y71117D01*
Y68578D01*
X2030165D01*
X2055557Y78735D02*
Y63500D01*
X2047939D01*
X2045400Y66039D01*
Y71117D01*
X2047939Y73657D01*
X2055557D01*
X2075870Y63500D02*
X2080949D01*
X2078410D01*
Y73657D01*
X2075870D01*
X2088566Y63500D02*
Y73657D01*
X2096184D01*
X2098723Y71117D01*
Y63500D01*
X2121576Y76196D02*
Y73657D01*
X2119036D01*
X2124115D01*
X2121576D01*
Y66039D01*
X2124115Y63500D01*
X2131732Y78735D02*
Y63500D01*
Y71117D01*
X2134272Y73657D01*
X2139350D01*
X2141889Y71117D01*
Y63500D01*
X2154585D02*
X2149507D01*
X2146967Y66039D01*
Y71117D01*
X2149507Y73657D01*
X2154585D01*
X2157124Y71117D01*
Y68578D01*
X2146967D01*
X2177437Y63500D02*
Y78735D01*
X2185055D01*
X2187594Y76196D01*
Y71117D01*
X2185055Y68578D01*
X2177437D01*
X2202829Y76196D02*
X2200290Y78735D01*
X2195212D01*
X2192673Y76196D01*
Y66039D01*
X2195212Y63500D01*
X2200290D01*
X2202829Y66039D01*
X2207908Y78735D02*
Y63500D01*
X2215525D01*
X2218064Y66039D01*
Y68578D01*
X2215525Y71117D01*
X2207908D01*
X2215525D01*
X2218064Y73657D01*
Y76196D01*
X2215525Y78735D01*
X2207908D01*
X2238378Y63500D02*
X2243456D01*
X2240917D01*
Y78735D01*
X2238378D01*
X2253613Y73657D02*
X2258691D01*
X2261230Y71117D01*
Y63500D01*
X2253613D01*
X2251074Y66039D01*
X2253613Y68578D01*
X2261230D01*
X2266309Y73657D02*
Y66039D01*
X2268848Y63500D01*
X2276465D01*
Y60961D01*
X2273926Y58421D01*
X2271387D01*
X2276465Y63500D02*
Y73657D01*
X2284083Y63500D02*
X2289161D01*
X2291701Y66039D01*
Y71117D01*
X2289161Y73657D01*
X2284083D01*
X2281544Y71117D01*
Y66039D01*
X2284083Y63500D01*
X2296779Y73657D02*
Y66039D01*
X2299318Y63500D01*
X2306936D01*
Y73657D01*
X2314553Y76196D02*
Y73657D01*
X2312014D01*
X2317092D01*
X2314553D01*
Y66039D01*
X2317092Y63500D01*
D34*
X249920Y31920D02*
Y42080D01*
X260080D01*
Y31920D01*
X249920D01*
X224520D02*
Y42080D01*
X234680D01*
Y31920D01*
X224520D01*
X199120D02*
Y42080D01*
X209280D01*
Y31920D01*
X199120D01*
X173720D02*
Y42080D01*
X183880D01*
Y31920D01*
X173720D01*
X87500Y570420D02*
X82420Y580580D01*
X92580D01*
X87500Y570420D01*
X122500Y521920D02*
X117420Y532080D01*
X127580D01*
X122500Y521920D01*
X147500Y570420D02*
X142420Y580580D01*
X152580D01*
X147500Y570420D01*
X375070Y223570D02*
Y233730D01*
X385230D01*
Y223570D01*
X375070D01*
X400470D02*
Y233730D01*
X410630D01*
Y223570D01*
X400470D01*
X425870D02*
Y233730D01*
X436030D01*
Y223570D01*
X425870D01*
X451270D02*
Y233730D01*
X461430D01*
Y223570D01*
X451270D01*
X300720Y311320D02*
Y321480D01*
X310880D01*
Y311320D01*
X300720D01*
X275320D02*
Y321480D01*
X285480D01*
Y311320D01*
X275320D01*
X300720Y235120D02*
Y245280D01*
X310880D01*
Y235120D01*
X300720D01*
X275320D02*
Y245280D01*
X285480D01*
Y235120D01*
X275320D01*
X21320D02*
Y245280D01*
X31480D01*
Y235120D01*
X21320D01*
X46720D02*
Y245280D01*
X56880D01*
Y235120D01*
X46720D01*
X300720Y184320D02*
Y194480D01*
X310880D01*
Y184320D01*
X300720D01*
X275320D02*
Y194480D01*
X285480D01*
Y184320D01*
X275320D01*
X21320Y31920D02*
Y42080D01*
X31480D01*
Y31920D01*
X21320D01*
X46720D02*
Y42080D01*
X56880D01*
Y31920D01*
X46720D01*
X21320Y336720D02*
Y346880D01*
X31480D01*
Y336720D01*
X21320D01*
X46720D02*
Y346880D01*
X56880D01*
Y336720D01*
X46720D01*
X300720Y209720D02*
Y219880D01*
X310880D01*
Y209720D01*
X300720D01*
X275320D02*
Y219880D01*
X285480D01*
Y209720D01*
X275320D01*
X300720Y336720D02*
Y346880D01*
X310880D01*
Y336720D01*
X300720D01*
X275320D02*
Y346880D01*
X285480D01*
Y336720D01*
X275320D01*
X21320Y184320D02*
Y194480D01*
X31480D01*
Y184320D01*
X21320D01*
X46720D02*
Y194480D01*
X56880D01*
Y184320D01*
X46720D01*
X21320Y311320D02*
Y321480D01*
X31480D01*
Y311320D01*
X21320D01*
X46720D02*
Y321480D01*
X56880D01*
Y311320D01*
X46720D01*
X300720Y133520D02*
Y143680D01*
X310880D01*
Y133520D01*
X300720D01*
X275320D02*
Y143680D01*
X285480D01*
Y133520D01*
X275320D01*
X300720Y260520D02*
Y270680D01*
X310880D01*
Y260520D01*
X300720D01*
X275320D02*
Y270680D01*
X285480D01*
Y260520D01*
X275320D01*
X21320Y82720D02*
Y92880D01*
X31480D01*
Y82720D01*
X21320D01*
X46720D02*
Y92880D01*
X56880D01*
Y82720D01*
X46720D01*
X21320Y209720D02*
Y219880D01*
X31480D01*
Y209720D01*
X21320D01*
X46720D02*
Y219880D01*
X56880D01*
Y209720D01*
X46720D01*
X300720Y158920D02*
Y169080D01*
X310880D01*
Y158920D01*
X300720D01*
X275320D02*
Y169080D01*
X285480D01*
Y158920D01*
X275320D01*
X300720Y285920D02*
Y296080D01*
X310880D01*
Y285920D01*
X300720D01*
X275320D02*
Y296080D01*
X285480D01*
Y285920D01*
X275320D01*
X21320Y57320D02*
Y67480D01*
X31480D01*
Y57320D01*
X21320D01*
X46720D02*
Y67480D01*
X56880D01*
Y57320D01*
X46720D01*
X21320Y362120D02*
Y372280D01*
X31480D01*
Y362120D01*
X21320D01*
X46720D02*
Y372280D01*
X56880D01*
Y362120D01*
X46720D01*
X300720Y82720D02*
Y92880D01*
X310880D01*
Y82720D01*
X300720D01*
X275320D02*
Y92880D01*
X285480D01*
Y82720D01*
X275320D01*
X300720Y412920D02*
Y423080D01*
X310880D01*
Y412920D01*
X300720D01*
X275320D02*
Y423080D01*
X285480D01*
Y412920D01*
X275320D01*
X21320Y108120D02*
Y118280D01*
X31480D01*
Y108120D01*
X21320D01*
X46720D02*
Y118280D01*
X56880D01*
Y108120D01*
X46720D01*
X21320Y412920D02*
Y423080D01*
X31480D01*
Y412920D01*
X21320D01*
X46720D02*
Y423080D01*
X56880D01*
Y412920D01*
X46720D01*
X300720Y108120D02*
Y118280D01*
X310880D01*
Y108120D01*
X300720D01*
X275320D02*
Y118280D01*
X285480D01*
Y108120D01*
X275320D01*
X300720Y438320D02*
Y448480D01*
X310880D01*
Y438320D01*
X300720D01*
X275320D02*
Y448480D01*
X285480D01*
Y438320D01*
X275320D01*
X21320Y260520D02*
Y270680D01*
X31480D01*
Y260520D01*
X21320D01*
X46720D02*
Y270680D01*
X56880D01*
Y260520D01*
X46720D01*
X21320Y387520D02*
Y397680D01*
X31480D01*
Y387520D01*
X21320D01*
X46720D02*
Y397680D01*
X56880D01*
Y387520D01*
X46720D01*
X300720Y31920D02*
Y42080D01*
X310880D01*
Y31920D01*
X300720D01*
X275320D02*
Y42080D01*
X285480D01*
Y31920D01*
X275320D01*
X300720Y362120D02*
Y372280D01*
X310880D01*
Y362120D01*
X300720D01*
X275320D02*
Y372280D01*
X285480D01*
Y362120D01*
X275320D01*
X21320Y158920D02*
Y169080D01*
X31480D01*
Y158920D01*
X21320D01*
X46720D02*
Y169080D01*
X56880D01*
Y158920D01*
X46720D01*
X21320Y285920D02*
Y296080D01*
X31480D01*
Y285920D01*
X21320D01*
X46720D02*
Y296080D01*
X56880D01*
Y285920D01*
X46720D01*
X300720Y57320D02*
Y67480D01*
X310880D01*
Y57320D01*
X300720D01*
X275320D02*
Y67480D01*
X285480D01*
Y57320D01*
X275320D01*
X300720Y387520D02*
Y397680D01*
X310880D01*
Y387520D01*
X300720D01*
X275320D02*
Y397680D01*
X285480D01*
Y387520D01*
X275320D01*
X21320Y133520D02*
Y143680D01*
X31480D01*
Y133520D01*
X21320D01*
X46720D02*
Y143680D01*
X56880D01*
Y133520D01*
X46720D01*
X21320Y438320D02*
Y448480D01*
X31480D01*
Y438320D01*
X21320D01*
X46720D02*
Y448480D01*
X56880D01*
Y438320D01*
X46720D01*
X335520Y108120D02*
Y118280D01*
X345680D01*
Y108120D01*
X335520D01*
X360920D02*
Y118280D01*
X371080D01*
Y108120D01*
X360920D01*
X335520Y82720D02*
Y92880D01*
X345680D01*
Y82720D01*
X335520D01*
X360920D02*
Y92880D01*
X371080D01*
Y82720D01*
X360920D01*
X335520Y158920D02*
Y169080D01*
X345680D01*
Y158920D01*
X335520D01*
X360920D02*
Y169080D01*
X371080D01*
Y158920D01*
X360920D01*
X335520Y133520D02*
Y143680D01*
X345680D01*
Y133520D01*
X335520D01*
X360920D02*
Y143680D01*
X371080D01*
Y133520D01*
X360920D01*
X335520Y31920D02*
Y42080D01*
X345680D01*
Y31920D01*
X335520D01*
X360920D02*
Y42080D01*
X371080D01*
Y31920D01*
X360920D01*
X335520Y57320D02*
Y67480D01*
X345680D01*
Y57320D01*
X335520D01*
X360920D02*
Y67480D01*
X371080D01*
Y57320D01*
X360920D01*
X246820Y573220D02*
Y583380D01*
X256980D01*
Y573220D01*
X246820D01*
Y547820D02*
Y557980D01*
X256980D01*
Y547820D01*
X246820D01*
Y522420D02*
Y532580D01*
X256980D01*
Y522420D01*
X246820D01*
X461420Y588020D02*
Y598180D01*
X471580D01*
Y588020D01*
X461420D01*
X436020D02*
Y598180D01*
X446180D01*
Y588020D01*
X436020D01*
X410620D02*
Y598180D01*
X420780D01*
Y588020D01*
X410620D01*
X385220D02*
Y598180D01*
X395380D01*
Y588020D01*
X385220D01*
X72120Y311320D02*
Y321480D01*
X82280D01*
Y311320D01*
X72120D01*
X97520D02*
Y321480D01*
X107680D01*
Y311320D01*
X97520D01*
X122920D02*
Y321480D01*
X133080D01*
Y311320D01*
X122920D01*
X148320D02*
Y321480D01*
X158480D01*
Y311320D01*
X148320D01*
X72120Y336720D02*
Y346880D01*
X82280D01*
Y336720D01*
X72120D01*
X97520D02*
Y346880D01*
X107680D01*
Y336720D01*
X97520D01*
X122920D02*
Y346880D01*
X133080D01*
Y336720D01*
X122920D01*
X148320D02*
Y346880D01*
X158480D01*
Y336720D01*
X148320D01*
X72120Y260520D02*
Y270680D01*
X82280D01*
Y260520D01*
X72120D01*
X97520D02*
Y270680D01*
X107680D01*
Y260520D01*
X97520D01*
X122920D02*
Y270680D01*
X133080D01*
Y260520D01*
X122920D01*
X148320D02*
Y270680D01*
X158480D01*
Y260520D01*
X148320D01*
X72120Y285920D02*
Y296080D01*
X82280D01*
Y285920D01*
X72120D01*
X97520D02*
Y296080D01*
X107680D01*
Y285920D01*
X97520D01*
X122920D02*
Y296080D01*
X133080D01*
Y285920D01*
X122920D01*
X148320D02*
Y296080D01*
X158480D01*
Y285920D01*
X148320D01*
X72120Y412920D02*
Y423080D01*
X82280D01*
Y412920D01*
X72120D01*
X97520D02*
Y423080D01*
X107680D01*
Y412920D01*
X97520D01*
X122920D02*
Y423080D01*
X133080D01*
Y412920D01*
X122920D01*
X148320D02*
Y423080D01*
X158480D01*
Y412920D01*
X148320D01*
X72120Y438320D02*
Y448480D01*
X82280D01*
Y438320D01*
X72120D01*
X97520D02*
Y448480D01*
X107680D01*
Y438320D01*
X97520D01*
X122920D02*
Y448480D01*
X133080D01*
Y438320D01*
X122920D01*
X148320D02*
Y448480D01*
X158480D01*
Y438320D01*
X148320D01*
X72120Y362120D02*
Y372280D01*
X82280D01*
Y362120D01*
X72120D01*
X97520D02*
Y372280D01*
X107680D01*
Y362120D01*
X97520D01*
X122920D02*
Y372280D01*
X133080D01*
Y362120D01*
X122920D01*
X148320D02*
Y372280D01*
X158480D01*
Y362120D01*
X148320D01*
X72120Y387520D02*
Y397680D01*
X82280D01*
Y387520D01*
X72120D01*
X97520D02*
Y397680D01*
X107680D01*
Y387520D01*
X97520D01*
X122920D02*
Y397680D01*
X133080D01*
Y387520D01*
X122920D01*
X148320D02*
Y397680D01*
X158480D01*
Y387520D01*
X148320D01*
X72120Y235120D02*
Y245280D01*
X82280D01*
Y235120D01*
X72120D01*
X97520D02*
Y245280D01*
X107680D01*
Y235120D01*
X97520D01*
X122920D02*
Y245280D01*
X133080D01*
Y235120D01*
X122920D01*
X148320D02*
Y245280D01*
X158480D01*
Y235120D01*
X148320D01*
X72120Y82720D02*
Y92880D01*
X82280D01*
Y82720D01*
X72120D01*
X97520D02*
Y92880D01*
X107680D01*
Y82720D01*
X97520D01*
X122920D02*
Y92880D01*
X133080D01*
Y82720D01*
X122920D01*
X148320D02*
Y92880D01*
X158480D01*
Y82720D01*
X148320D01*
X72120Y108120D02*
Y118280D01*
X82280D01*
Y108120D01*
X72120D01*
X97520D02*
Y118280D01*
X107680D01*
Y108120D01*
X97520D01*
X122920D02*
Y118280D01*
X133080D01*
Y108120D01*
X122920D01*
X148320D02*
Y118280D01*
X158480D01*
Y108120D01*
X148320D01*
X72120Y31920D02*
Y42080D01*
X82280D01*
Y31920D01*
X72120D01*
X97520D02*
Y42080D01*
X107680D01*
Y31920D01*
X97520D01*
X122920D02*
Y42080D01*
X133080D01*
Y31920D01*
X122920D01*
X148320D02*
Y42080D01*
X158480D01*
Y31920D01*
X148320D01*
X72120Y57320D02*
Y67480D01*
X82280D01*
Y57320D01*
X72120D01*
X97520D02*
Y67480D01*
X107680D01*
Y57320D01*
X97520D01*
X122920D02*
Y67480D01*
X133080D01*
Y57320D01*
X122920D01*
X148320D02*
Y67480D01*
X158480D01*
Y57320D01*
X148320D01*
X72120Y184320D02*
Y194480D01*
X82280D01*
Y184320D01*
X72120D01*
X97520D02*
Y194480D01*
X107680D01*
Y184320D01*
X97520D01*
X122920D02*
Y194480D01*
X133080D01*
Y184320D01*
X122920D01*
X148320D02*
Y194480D01*
X158480D01*
Y184320D01*
X148320D01*
X72120Y209720D02*
Y219880D01*
X82280D01*
Y209720D01*
X72120D01*
X97520D02*
Y219880D01*
X107680D01*
Y209720D01*
X97520D01*
X122920D02*
Y219880D01*
X133080D01*
Y209720D01*
X122920D01*
X148320D02*
Y219880D01*
X158480D01*
Y209720D01*
X148320D01*
X72120Y133520D02*
Y143680D01*
X82280D01*
Y133520D01*
X72120D01*
X97520D02*
Y143680D01*
X107680D01*
Y133520D01*
X97520D01*
X122920D02*
Y143680D01*
X133080D01*
Y133520D01*
X122920D01*
X148320D02*
Y143680D01*
X158480D01*
Y133520D01*
X148320D01*
X72120Y158920D02*
Y169080D01*
X82280D01*
Y158920D01*
X72120D01*
X97520D02*
Y169080D01*
X107680D01*
Y158920D01*
X97520D01*
X122920D02*
Y169080D01*
X133080D01*
Y158920D01*
X122920D01*
X148320D02*
Y169080D01*
X158480D01*
Y158920D01*
X148320D01*
X386320Y133520D02*
Y143680D01*
X396480D01*
Y133520D01*
X386320D01*
X411720D02*
Y143680D01*
X421880D01*
Y133520D01*
X411720D01*
X437120D02*
Y143680D01*
X447280D01*
Y133520D01*
X437120D01*
X462520D02*
Y143680D01*
X472680D01*
Y133520D01*
X462520D01*
X386320Y82720D02*
Y92880D01*
X396480D01*
Y82720D01*
X386320D01*
X411720D02*
Y92880D01*
X421880D01*
Y82720D01*
X411720D01*
X437120D02*
Y92880D01*
X447280D01*
Y82720D01*
X437120D01*
X462520D02*
Y92880D01*
X472680D01*
Y82720D01*
X462520D01*
X249920Y158920D02*
Y169080D01*
X260080D01*
Y158920D01*
X249920D01*
X224520D02*
Y169080D01*
X234680D01*
Y158920D01*
X224520D01*
X199120D02*
Y169080D01*
X209280D01*
Y158920D01*
X199120D01*
X173720D02*
Y169080D01*
X183880D01*
Y158920D01*
X173720D01*
X249920Y133520D02*
Y143680D01*
X260080D01*
Y133520D01*
X249920D01*
X224520D02*
Y143680D01*
X234680D01*
Y133520D01*
X224520D01*
X199120D02*
Y143680D01*
X209280D01*
Y133520D01*
X199120D01*
X173720D02*
Y143680D01*
X183880D01*
Y133520D01*
X173720D01*
X249920Y108120D02*
Y118280D01*
X260080D01*
Y108120D01*
X249920D01*
X224520D02*
Y118280D01*
X234680D01*
Y108120D01*
X224520D01*
X199120D02*
Y118280D01*
X209280D01*
Y108120D01*
X199120D01*
X173720D02*
Y118280D01*
X183880D01*
Y108120D01*
X173720D01*
X249920Y57320D02*
Y67480D01*
X260080D01*
Y57320D01*
X249920D01*
X224520D02*
Y67480D01*
X234680D01*
Y57320D01*
X224520D01*
X199120D02*
Y67480D01*
X209280D01*
Y57320D01*
X199120D01*
X173720D02*
Y67480D01*
X183880D01*
Y57320D01*
X173720D01*
X249920Y387520D02*
Y397680D01*
X260080D01*
Y387520D01*
X249920D01*
X224520D02*
Y397680D01*
X234680D01*
Y387520D01*
X224520D01*
X199120D02*
Y397680D01*
X209280D01*
Y387520D01*
X199120D01*
X173720D02*
Y397680D01*
X183880D01*
Y387520D01*
X173720D01*
X249920Y362120D02*
Y372280D01*
X260080D01*
Y362120D01*
X249920D01*
X224520D02*
Y372280D01*
X234680D01*
Y362120D01*
X224520D01*
X199120D02*
Y372280D01*
X209280D01*
Y362120D01*
X199120D01*
X173720D02*
Y372280D01*
X183880D01*
Y362120D01*
X173720D01*
X249920Y412920D02*
Y423080D01*
X260080D01*
Y412920D01*
X249920D01*
X224520D02*
Y423080D01*
X234680D01*
Y412920D01*
X224520D01*
X199120D02*
Y423080D01*
X209280D01*
Y412920D01*
X199120D01*
X173720D02*
Y423080D01*
X183880D01*
Y412920D01*
X173720D01*
X249920Y82720D02*
Y92880D01*
X260080D01*
Y82720D01*
X249920D01*
X224520D02*
Y92880D01*
X234680D01*
Y82720D01*
X224520D01*
X199120D02*
Y92880D01*
X209280D01*
Y82720D01*
X199120D01*
X173720D02*
Y92880D01*
X183880D01*
Y82720D01*
X173720D01*
X249920Y336720D02*
Y346880D01*
X260080D01*
Y336720D01*
X249920D01*
X224520D02*
Y346880D01*
X234680D01*
Y336720D01*
X224520D01*
X199120D02*
Y346880D01*
X209280D01*
Y336720D01*
X199120D01*
X173720D02*
Y346880D01*
X183880D01*
Y336720D01*
X173720D01*
X386320Y108120D02*
Y118280D01*
X396480D01*
Y108120D01*
X386320D01*
X411720D02*
Y118280D01*
X421880D01*
Y108120D01*
X411720D01*
X437120D02*
Y118280D01*
X447280D01*
Y108120D01*
X437120D01*
X462520D02*
Y118280D01*
X472680D01*
Y108120D01*
X462520D01*
X386320Y31920D02*
Y42080D01*
X396480D01*
Y31920D01*
X386320D01*
X411720D02*
Y42080D01*
X421880D01*
Y31920D01*
X411720D01*
X437120D02*
Y42080D01*
X447280D01*
Y31920D01*
X437120D01*
X462520D02*
Y42080D01*
X472680D01*
Y31920D01*
X462520D01*
X386320Y57320D02*
Y67480D01*
X396480D01*
Y57320D01*
X386320D01*
X411720D02*
Y67480D01*
X421880D01*
Y57320D01*
X411720D01*
X437120D02*
Y67480D01*
X447280D01*
Y57320D01*
X437120D01*
X462520D02*
Y67480D01*
X472680D01*
Y57320D01*
X462520D01*
X249920Y438320D02*
Y448480D01*
X260080D01*
Y438320D01*
X249920D01*
X224520D02*
Y448480D01*
X234680D01*
Y438320D01*
X224520D01*
X199120D02*
Y448480D01*
X209280D01*
Y438320D01*
X199120D01*
X173720D02*
Y448480D01*
X183880D01*
Y438320D01*
X173720D01*
X249920Y260520D02*
Y270680D01*
X260080D01*
Y260520D01*
X249920D01*
X224520D02*
Y270680D01*
X234680D01*
Y260520D01*
X224520D01*
X199120D02*
Y270680D01*
X209280D01*
Y260520D01*
X199120D01*
X173720D02*
Y270680D01*
X183880D01*
Y260520D01*
X173720D01*
X249920Y235120D02*
Y245280D01*
X260080D01*
Y235120D01*
X249920D01*
X224520D02*
Y245280D01*
X234680D01*
Y235120D01*
X224520D01*
X199120D02*
Y245280D01*
X209280D01*
Y235120D01*
X199120D01*
X173720D02*
Y245280D01*
X183880D01*
Y235120D01*
X173720D01*
X249920Y311320D02*
Y321480D01*
X260080D01*
Y311320D01*
X249920D01*
X224520D02*
Y321480D01*
X234680D01*
Y311320D01*
X224520D01*
X199120D02*
Y321480D01*
X209280D01*
Y311320D01*
X199120D01*
X173720D02*
Y321480D01*
X183880D01*
Y311320D01*
X173720D01*
X249920Y285920D02*
Y296080D01*
X260080D01*
Y285920D01*
X249920D01*
X224520D02*
Y296080D01*
X234680D01*
Y285920D01*
X224520D01*
X199120D02*
Y296080D01*
X209280D01*
Y285920D01*
X199120D01*
X173720D02*
Y296080D01*
X183880D01*
Y285920D01*
X173720D01*
X249920Y209720D02*
Y219880D01*
X260080D01*
Y209720D01*
X249920D01*
X224520D02*
Y219880D01*
X234680D01*
Y209720D01*
X224520D01*
X199120D02*
Y219880D01*
X209280D01*
Y209720D01*
X199120D01*
X173720D02*
Y219880D01*
X183880D01*
Y209720D01*
X173720D01*
X249920Y184320D02*
Y194480D01*
X260080D01*
Y184320D01*
X249920D01*
X224520D02*
Y194480D01*
X234680D01*
Y184320D01*
X224520D01*
X199120D02*
Y194480D01*
X209280D01*
Y184320D01*
X199120D01*
X173720D02*
Y194480D01*
X183880D01*
Y184320D01*
X173720D01*
X386320Y158920D02*
Y169080D01*
X396480D01*
Y158920D01*
X386320D01*
X411720D02*
Y169080D01*
X421880D01*
Y158920D01*
X411720D01*
X437120D02*
Y169080D01*
X447280D01*
Y158920D01*
X437120D01*
X462520D02*
Y169080D01*
X472680D01*
Y158920D01*
X462520D01*
X512220Y541220D02*
Y551380D01*
X522380D01*
Y541220D01*
X512220D01*
X537620D02*
Y551380D01*
X547780D01*
Y541220D01*
X537620D01*
X512220Y515820D02*
Y525980D01*
X522380D01*
Y515820D01*
X512220D01*
X537620D02*
Y525980D01*
X547780D01*
Y515820D01*
X537620D01*
X512220Y490420D02*
Y500580D01*
X522380D01*
Y490420D01*
X512220D01*
X537620D02*
Y500580D01*
X547780D01*
Y490420D01*
X537620D01*
X512220Y465020D02*
Y475180D01*
X522380D01*
Y465020D01*
X512220D01*
X537620D02*
Y475180D01*
X547780D01*
Y465020D01*
X537620D01*
X512220Y439620D02*
Y449780D01*
X522380D01*
Y439620D01*
X512220D01*
X537620D02*
Y449780D01*
X547780D01*
Y439620D01*
X537620D01*
X512220Y414220D02*
Y424380D01*
X522380D01*
Y414220D01*
X512220D01*
X537620D02*
Y424380D01*
X547780D01*
Y414220D01*
X537620D01*
X512220Y388820D02*
Y398980D01*
X522380D01*
Y388820D01*
X512220D01*
X537620D02*
Y398980D01*
X547780D01*
Y388820D01*
X537620D01*
X512220Y363420D02*
Y373580D01*
X522380D01*
Y363420D01*
X512220D01*
X537620D02*
Y373580D01*
X547780D01*
Y363420D01*
X537620D01*
X512220Y338020D02*
Y348180D01*
X522380D01*
Y338020D01*
X512220D01*
X537620D02*
Y348180D01*
X547780D01*
Y338020D01*
X537620D01*
X512220Y312620D02*
Y322780D01*
X522380D01*
Y312620D01*
X512220D01*
X537620D02*
Y322780D01*
X547780D01*
Y312620D01*
X537620D01*
X512220Y287220D02*
Y297380D01*
X522380D01*
Y287220D01*
X512220D01*
X537620D02*
Y297380D01*
X547780D01*
Y287220D01*
X537620D01*
X512220Y261820D02*
Y271980D01*
X522380D01*
Y261820D01*
X512220D01*
X537620D02*
Y271980D01*
X547780D01*
Y261820D01*
X537620D01*
X512220Y236420D02*
Y246580D01*
X522380D01*
Y236420D01*
X512220D01*
X537620D02*
Y246580D01*
X547780D01*
Y236420D01*
X537620D01*
X512220Y211020D02*
Y221180D01*
X522380D01*
Y211020D01*
X512220D01*
X537620D02*
Y221180D01*
X547780D01*
Y211020D01*
X537620D01*
X512220Y185620D02*
Y195780D01*
X522380D01*
Y185620D01*
X512220D01*
X537620D02*
Y195780D01*
X547780D01*
Y185620D01*
X537620D01*
X512220Y160220D02*
Y170380D01*
X522380D01*
Y160220D01*
X512220D01*
X537620D02*
Y170380D01*
X547780D01*
Y160220D01*
X537620D01*
X512220Y134820D02*
Y144980D01*
X522380D01*
Y134820D01*
X512220D01*
X537620D02*
Y144980D01*
X547780D01*
Y134820D01*
X537620D01*
X512220Y109420D02*
Y119580D01*
X522380D01*
Y109420D01*
X512220D01*
X537620D02*
Y119580D01*
X547780D01*
Y109420D01*
X537620D01*
X512220Y84020D02*
Y94180D01*
X522380D01*
Y84020D01*
X512220D01*
X537620D02*
Y94180D01*
X547780D01*
Y84020D01*
X537620D01*
X512220Y58620D02*
Y68780D01*
X522380D01*
Y58620D01*
X512220D01*
X537620D02*
Y68780D01*
X547780D01*
Y58620D01*
X537620D01*
X366820Y463820D02*
Y473980D01*
X376980D01*
Y463820D01*
X366820D01*
Y438420D02*
Y448580D01*
X376980D01*
Y438420D01*
X366820D01*
Y413020D02*
Y423180D01*
X376980D01*
Y413020D01*
X366820D01*
Y387620D02*
Y397780D01*
X376980D01*
Y387620D01*
X366820D01*
Y362220D02*
Y372380D01*
X376980D01*
Y362220D01*
X366820D01*
Y336820D02*
Y346980D01*
X376980D01*
Y336820D01*
X366820D01*
Y311420D02*
Y321580D01*
X376980D01*
Y311420D01*
X366820D01*
Y286020D02*
Y296180D01*
X376980D01*
Y286020D01*
X366820D01*
X443020Y463820D02*
Y473980D01*
X453180D01*
Y463820D01*
X443020D01*
Y438420D02*
Y448580D01*
X453180D01*
Y438420D01*
X443020D01*
Y413020D02*
Y423180D01*
X453180D01*
Y413020D01*
X443020D01*
Y387620D02*
Y397780D01*
X453180D01*
Y387620D01*
X443020D01*
Y362220D02*
Y372380D01*
X453180D01*
Y362220D01*
X443020D01*
Y336820D02*
Y346980D01*
X453180D01*
Y336820D01*
X443020D01*
Y311420D02*
Y321580D01*
X453180D01*
Y311420D01*
X443020D01*
Y286020D02*
Y296180D01*
X453180D01*
Y286020D01*
X443020D01*
X380620Y518820D02*
Y528980D01*
X390780D01*
Y518820D01*
X380620D01*
X406020D02*
Y528980D01*
X416180D01*
Y518820D01*
X406020D01*
X431420D02*
Y528980D01*
X441580D01*
Y518820D01*
X431420D01*
X456820D02*
Y528980D01*
X466980D01*
Y518820D01*
X456820D01*
X415700Y607420D02*
X418240Y609960D01*
X420780D01*
X418240Y612500D01*
X420780Y615040D01*
X418240D01*
X415700Y617580D01*
X413160Y615040D01*
X410620D01*
X413160Y612500D01*
X410620Y609960D01*
X413160D01*
X415700Y607420D01*
X340000Y250170D02*
X342540Y252710D01*
X345080D01*
X342540Y255250D01*
X345080Y257790D01*
X342540D01*
X340000Y260330D01*
X337460Y257790D01*
X334920D01*
X337460Y255250D01*
X334920Y252710D01*
X337460D01*
X340000Y250170D01*
X280000Y9920D02*
X282540Y12460D01*
X285080D01*
X282540Y15000D01*
X285080Y17540D01*
X282540D01*
X280000Y20080D01*
X277460Y17540D01*
X274920D01*
X277460Y15000D01*
X274920Y12460D01*
X277460D01*
X280000Y9920D01*
X72900Y604920D02*
X75440Y607459D01*
X77980D01*
X75440Y610000D01*
X77980Y612539D01*
X75440D01*
X72900Y615079D01*
X70360Y612539D01*
X67820D01*
X70360Y610000D01*
X67820Y607459D01*
X70360D01*
X72900Y604920D01*
X517750Y23420D02*
X520290Y25960D01*
X522830D01*
X520290Y28500D01*
X522830Y31040D01*
X520290D01*
X517750Y33580D01*
X515210Y31040D01*
X512670D01*
X515210Y28500D01*
X512670Y25960D01*
X515210D01*
X517750Y23420D01*
X486820Y439620D02*
X489360Y444700D01*
X486820Y449780D01*
X491900Y447240D01*
X496980Y449780D01*
X494440Y444700D01*
X496980Y439620D01*
X491900Y442160D01*
X486820Y439620D01*
X51750Y10670D02*
X54290Y13210D01*
X56830D01*
X54290Y15750D01*
X56830Y18290D01*
X54290D01*
X51750Y20830D01*
X49210Y18290D01*
X46670D01*
X49210Y15750D01*
X46670Y13210D01*
X49210D01*
X51750Y10670D01*
X51900Y503820D02*
X54440Y506360D01*
X56980D01*
X54440Y508900D01*
X56980Y511440D01*
X54440D01*
X51900Y513980D01*
X49360Y511440D01*
X46820D01*
X49360Y508900D01*
X46820Y506360D01*
X49360D01*
X51900Y503820D01*
Y463820D02*
X54440Y466360D01*
X56980D01*
X54440Y468900D01*
X56980Y471440D01*
X54440D01*
X51900Y473980D01*
X49360Y471440D01*
X46820D01*
X49360Y468900D01*
X46820Y466360D01*
X49360D01*
X51900Y463820D01*
X491900Y45920D02*
X494440Y48460D01*
X496980D01*
X494440Y51000D01*
X496980Y53540D01*
X494440D01*
X491900Y56080D01*
X489360Y53540D01*
X486820D01*
X489360Y51000D01*
X486820Y48460D01*
X489360D01*
X491900Y45920D01*
X486820Y172920D02*
X489360Y178000D01*
X486820Y183080D01*
X491900Y180540D01*
X496980Y183080D01*
X494440Y178000D01*
X496980Y172920D01*
X491900Y175460D01*
X486820Y172920D01*
X485920Y397920D02*
X488460Y403000D01*
X485920Y408080D01*
X491000Y405540D01*
X496080Y408080D01*
X493540Y403000D01*
X496080Y397920D01*
X491000Y400460D01*
X485920Y397920D01*
X491900Y134820D02*
X494440Y137360D01*
X496980D01*
X494440Y139900D01*
X496980Y142440D01*
X494440D01*
X491900Y144980D01*
X489360Y142440D01*
X486820D01*
X489360Y139900D01*
X486820Y137360D01*
X489360D01*
X491900Y134820D01*
X486820Y503420D02*
X489360Y508500D01*
X486820Y513580D01*
X491900Y511040D01*
X496980Y513580D01*
X494440Y508500D01*
X496980Y503420D01*
X491900Y505960D01*
X486820Y503420D01*
X486820Y287220D02*
X489360Y292300D01*
X486820Y297380D01*
X491900Y294840D01*
X496980Y297380D01*
X494440Y292300D01*
X496980Y287220D01*
X491900Y289760D01*
X486820Y287220D01*
X366750Y10920D02*
X369290Y13460D01*
X371830D01*
X369290Y16000D01*
X371830Y18540D01*
X369290D01*
X366750Y21080D01*
X364210Y18540D01*
X361670D01*
X364210Y16000D01*
X361670Y13460D01*
X364210D01*
X366750Y10920D01*
X339250Y197170D02*
X341790Y199710D01*
X344330D01*
X341790Y202250D01*
X344330Y204790D01*
X341790D01*
X339250Y207330D01*
X336710Y204790D01*
X334170D01*
X336710Y202250D01*
X334170Y199710D01*
X336710D01*
X339250Y197170D01*
X466820Y386120D02*
X469360Y391200D01*
X466820Y396280D01*
X471900Y393740D01*
X476980Y396280D01*
X474440Y391200D01*
X476980Y386120D01*
X471900Y388660D01*
X466820Y386120D01*
Y361120D02*
X469360Y366200D01*
X466820Y371280D01*
X471900Y368740D01*
X476980Y371280D01*
X474440Y366200D01*
X476980Y361120D01*
X471900Y363660D01*
X466820Y361120D01*
X336820Y386120D02*
X339360Y391200D01*
X336820Y396280D01*
X341900Y393740D01*
X346980Y396280D01*
X344440Y391200D01*
X346980Y386120D01*
X341900Y388660D01*
X336820Y386120D01*
Y361120D02*
X339360Y366200D01*
X336820Y371280D01*
X341900Y368740D01*
X346980Y371280D01*
X344440Y366200D01*
X346980Y361120D01*
X341900Y363660D01*
X336820Y361120D01*
X16820Y583420D02*
X19360Y588500D01*
X16820Y593580D01*
X21900Y591040D01*
X26980Y593580D01*
X24440Y588500D01*
X26980Y583420D01*
X21900Y585960D01*
X16820Y583420D01*
X26820D02*
X29360Y588500D01*
X26820Y593580D01*
X31900Y591040D01*
X36980Y593580D01*
X34440Y588500D01*
X36980Y583420D01*
X31900Y585960D01*
X26820Y583420D01*
X16820Y573420D02*
X19360Y578500D01*
X16820Y583580D01*
X21900Y581040D01*
X26980Y583580D01*
X24440Y578500D01*
X26980Y573420D01*
X21900Y575960D01*
X16820Y573420D01*
X26820D02*
X29360Y578500D01*
X26820Y583580D01*
X31900Y581040D01*
X36980Y583580D01*
X34440Y578500D01*
X36980Y573420D01*
X31900Y575960D01*
X26820Y573420D01*
X16820Y563420D02*
X19360Y568500D01*
X16820Y573580D01*
X21900Y571040D01*
X26980Y573580D01*
X24440Y568500D01*
X26980Y563420D01*
X21900Y565960D01*
X16820Y563420D01*
X26820D02*
X29360Y568500D01*
X26820Y573580D01*
X31900Y571040D01*
X36980Y573580D01*
X34440Y568500D01*
X36980Y563420D01*
X31900Y565960D01*
X26820Y563420D01*
X16820Y543420D02*
X19360Y548500D01*
X16820Y553580D01*
X21900Y551040D01*
X26980Y553580D01*
X24440Y548500D01*
X26980Y543420D01*
X21900Y545960D01*
X16820Y543420D01*
X26820D02*
X29360Y548500D01*
X26820Y553580D01*
X31900Y551040D01*
X36980Y553580D01*
X34440Y548500D01*
X36980Y543420D01*
X31900Y545960D01*
X26820Y543420D01*
X16820Y533420D02*
X19360Y538500D01*
X16820Y543580D01*
X21900Y541040D01*
X26980Y543580D01*
X24440Y538500D01*
X26980Y533420D01*
X21900Y535960D01*
X16820Y533420D01*
X26820D02*
X29360Y538500D01*
X26820Y543580D01*
X31900Y541040D01*
X36980Y543580D01*
X34440Y538500D01*
X36980Y533420D01*
X31900Y535960D01*
X26820Y533420D01*
X391820Y419620D02*
X394360Y424700D01*
X391820Y429780D01*
X396900Y427240D01*
X401980Y429780D01*
X399440Y424700D01*
X401980Y419620D01*
X396900Y422160D01*
X391820Y419620D01*
X411820D02*
X414360Y424700D01*
X411820Y429780D01*
X416900Y427240D01*
X421980Y429780D01*
X419440Y424700D01*
X421980Y419620D01*
X416900Y422160D01*
X411820Y419620D01*
X486820Y157920D02*
X489360Y163000D01*
X486820Y168080D01*
X491900Y165540D01*
X496980Y168080D01*
X494440Y163000D01*
X496980Y157920D01*
X491900Y160460D01*
X486820Y157920D01*
Y107920D02*
X489360Y113000D01*
X486820Y118080D01*
X491900Y115540D01*
X496980Y118080D01*
X494440Y113000D01*
X496980Y107920D01*
X491900Y110460D01*
X486820Y107920D01*
Y77920D02*
X489360Y83000D01*
X486820Y88080D01*
X491900Y85540D01*
X496980Y88080D01*
X494440Y83000D01*
X496980Y77920D01*
X491900Y80460D01*
X486820Y77920D01*
X724000Y278384D02*
X727048Y284480D01*
X724000Y290576D01*
X730096Y287528D01*
X736192Y290576D01*
X733144Y284480D01*
X736192Y278384D01*
X730096Y281432D01*
X724000Y278384D01*
X730096Y217424D02*
X733144Y220472D01*
X736192D01*
X733144Y223520D01*
X736192Y226568D01*
X733144D01*
X730096Y229616D01*
X727048Y226568D01*
X724000D01*
X727048Y223520D01*
X724000Y220472D01*
X727048D01*
X730096Y217424D01*
X724000Y186944D02*
Y199136D01*
X736192D01*
Y186944D01*
X724000D01*
X730096Y156464D02*
X724000Y168656D01*
X736192D01*
X730096Y156464D01*
D35*
X414480Y341400D02*
X413898Y343761D01*
X412286Y345580D01*
X410012Y346443D01*
X407598Y346150D01*
X405597Y344768D01*
X404468Y342616D01*
Y340184D01*
X405597Y338031D01*
X407598Y336650D01*
X410012Y336357D01*
X412286Y337219D01*
X413898Y339039D01*
X414480Y341400D01*
D36*
X736188Y328671D02*
X733141Y331718D01*
X727047D01*
X724000Y328671D01*
Y325624D01*
X727047Y322577D01*
X733141D01*
X736188Y319530D01*
Y316483D01*
X733141Y313436D01*
X727047D01*
X724000Y316483D01*
X742282Y325624D02*
Y316483D01*
X745329Y313436D01*
X754470D01*
Y310389D01*
X751423Y307342D01*
X748376D01*
X754470Y313436D02*
Y325624D01*
X760564Y313436D02*
Y325624D01*
X763611D01*
X766658Y322577D01*
Y313436D01*
Y322577D01*
X769705Y325624D01*
X772752Y322577D01*
Y313436D01*
X778846Y331718D02*
Y313436D01*
X787987D01*
X791034Y316483D01*
Y319530D01*
Y322577D01*
X787987Y325624D01*
X778846D01*
X800175Y313436D02*
X806269D01*
X809316Y316483D01*
Y322577D01*
X806269Y325624D01*
X800175D01*
X797128Y322577D01*
Y316483D01*
X800175Y313436D01*
X815410D02*
X821504D01*
X818457D01*
Y331718D01*
X815410D01*
X851984D02*
Y313436D01*
Y322577D01*
X864173D01*
Y331718D01*
Y313436D01*
X870266D02*
X876360D01*
X873314D01*
Y325624D01*
X870266D01*
X888549Y328671D02*
Y325624D01*
X885502D01*
X891596D01*
X888549D01*
Y316483D01*
X891596Y313436D01*
X931207Y328671D02*
X928160Y331718D01*
X922066D01*
X919019Y328671D01*
Y316483D01*
X922066Y313436D01*
X928160D01*
X931207Y316483D01*
X940348Y313436D02*
X946442D01*
X949489Y316483D01*
Y322577D01*
X946442Y325624D01*
X940348D01*
X937301Y322577D01*
Y316483D01*
X940348Y313436D01*
X955583Y325624D02*
Y316483D01*
X958630Y313436D01*
X967771D01*
Y325624D01*
X973865Y313436D02*
Y325624D01*
X983006D01*
X986053Y322577D01*
Y313436D01*
X995194Y328671D02*
Y325624D01*
X992147D01*
X998241D01*
X995194D01*
Y316483D01*
X998241Y313436D01*
X1040909Y331718D02*
X1028721D01*
Y322577D01*
X1034815D01*
X1028721D01*
Y313436D01*
X1047003D02*
X1053097D01*
X1050050D01*
Y325624D01*
X1047003D01*
X1062238Y313436D02*
Y325624D01*
X1071379D01*
X1074426Y322577D01*
Y313436D01*
X1080520D02*
X1086614D01*
X1083567D01*
Y325624D01*
X1080520D01*
X1095755Y313436D02*
X1104896D01*
X1107943Y316483D01*
X1104896Y319530D01*
X1098802D01*
X1095755Y322577D01*
X1098802Y325624D01*
X1107943D01*
X1114037Y331718D02*
Y313436D01*
Y322577D01*
X1117085Y325624D01*
X1123178D01*
X1126226Y322577D01*
Y313436D01*
X1141461D02*
X1135367D01*
X1132319Y316483D01*
Y322577D01*
X1135367Y325624D01*
X1141461D01*
X1144508Y322577D01*
Y319530D01*
X1132319D01*
X1162790Y331718D02*
Y313436D01*
X1153649D01*
X1150602Y316483D01*
Y322577D01*
X1153649Y325624D01*
X1162790D01*
X1187166Y331718D02*
Y313436D01*
Y322577D01*
X1199354D01*
Y331718D01*
Y313436D01*
X1208495D02*
X1214589D01*
X1217636Y316483D01*
Y322577D01*
X1214589Y325624D01*
X1208495D01*
X1205448Y322577D01*
Y316483D01*
X1208495Y313436D01*
X1223730D02*
X1229824D01*
X1226777D01*
Y331718D01*
X1223730D01*
X1248106Y313436D02*
X1242012D01*
X1238965Y316483D01*
Y322577D01*
X1242012Y325624D01*
X1248106D01*
X1251153Y322577D01*
Y319530D01*
X1238965D01*
X1287717Y328671D02*
X1284670Y331718D01*
X1278576D01*
X1275529Y328671D01*
Y325624D01*
X1278576Y322577D01*
X1284670D01*
X1287717Y319530D01*
Y316483D01*
X1284670Y313436D01*
X1278576D01*
X1275529Y316483D01*
X1293811Y313436D02*
X1299905D01*
X1296858D01*
Y325624D01*
X1293811D01*
X1309046D02*
X1321234D01*
X1309046Y313436D01*
X1321234D01*
X1336470D02*
X1330375D01*
X1327328Y316483D01*
Y322577D01*
X1330375Y325624D01*
X1336470D01*
X1339516Y322577D01*
Y319530D01*
X1327328D01*
X1369996Y313436D02*
Y331718D01*
X1379138D01*
X1382184Y328671D01*
Y322577D01*
X1379138Y319530D01*
X1369996D01*
X1388279Y331718D02*
Y313436D01*
Y322577D01*
X1391326Y325624D01*
X1397420D01*
X1400467Y322577D01*
Y313436D01*
X1406561Y325624D02*
Y316483D01*
X1409608Y313436D01*
X1418749D01*
Y310389D01*
X1415702Y307342D01*
X1412655D01*
X1418749Y313436D02*
Y325624D01*
X1424843Y313436D02*
X1433984D01*
X1437031Y316483D01*
X1433984Y319530D01*
X1427890D01*
X1424843Y322577D01*
X1427890Y325624D01*
X1437031D01*
X1443125Y313436D02*
X1449219D01*
X1446172D01*
Y325624D01*
X1443125D01*
X1470548D02*
X1461407D01*
X1458360Y322577D01*
Y316483D01*
X1461407Y313436D01*
X1470548D01*
X1479689Y325624D02*
X1485783D01*
X1488830Y322577D01*
Y313436D01*
X1479689D01*
X1476642Y316483D01*
X1479689Y319530D01*
X1488830D01*
X1494924Y313436D02*
X1501018D01*
X1497971D01*
Y331718D01*
X1494924D01*
X1528441D02*
Y313436D01*
X1540629D01*
X1555864D02*
X1549770D01*
X1546723Y316483D01*
Y322577D01*
X1549770Y325624D01*
X1555864D01*
X1558911Y322577D01*
Y319530D01*
X1546723D01*
X1565005Y313436D02*
Y325624D01*
X1574146D01*
X1577193Y322577D01*
Y313436D01*
X1589382Y307342D02*
X1592428D01*
X1595475Y310389D01*
Y325624D01*
X1586334D01*
X1583287Y322577D01*
Y316483D01*
X1586334Y313436D01*
X1595475D01*
X1604617Y328671D02*
Y325624D01*
X1601570D01*
X1607664D01*
X1604617D01*
Y316483D01*
X1607664Y313436D01*
X1616805Y331718D02*
Y313436D01*
Y322577D01*
X1619852Y325624D01*
X1625946D01*
X1628993Y322577D01*
Y313436D01*
X1659473D02*
Y331718D01*
X1668614D01*
X1671661Y328671D01*
Y322577D01*
X1668614Y319530D01*
X1659473D01*
X1665567D02*
X1671661Y313436D01*
X1680802D02*
X1686896D01*
X1689943Y316483D01*
Y322577D01*
X1686896Y325624D01*
X1680802D01*
X1677755Y322577D01*
Y316483D01*
X1680802Y313436D01*
X1696037Y325624D02*
Y316483D01*
X1699084Y313436D01*
X1708225D01*
Y325624D01*
X1717366Y328671D02*
Y325624D01*
X1714319D01*
X1720413D01*
X1717366D01*
Y316483D01*
X1720413Y313436D01*
X1747836D02*
Y331718D01*
X1756977D01*
X1760024Y328671D01*
Y322577D01*
X1756977Y319530D01*
X1747836D01*
X1769165Y325624D02*
X1775259D01*
X1778306Y322577D01*
Y313436D01*
X1769165D01*
X1766118Y316483D01*
X1769165Y319530D01*
X1778306D01*
X1787447Y328671D02*
Y325624D01*
X1784400D01*
X1790494D01*
X1787447D01*
Y316483D01*
X1790494Y313436D01*
X1799635Y331718D02*
Y313436D01*
Y322577D01*
X1802682Y325624D01*
X1808776D01*
X1811823Y322577D01*
Y313436D01*
X1836199Y331718D02*
Y313436D01*
X1848387D01*
X1863623D02*
X1857529D01*
X1854482Y316483D01*
Y322577D01*
X1857529Y325624D01*
X1863623D01*
X1866670Y322577D01*
Y319530D01*
X1854482D01*
X1872764Y313436D02*
Y325624D01*
X1881905D01*
X1884952Y322577D01*
Y313436D01*
X1897140Y307342D02*
X1900187D01*
X1903234Y310389D01*
Y325624D01*
X1894093D01*
X1891046Y322577D01*
Y316483D01*
X1894093Y313436D01*
X1903234D01*
X1912375Y328671D02*
Y325624D01*
X1909328D01*
X1915422D01*
X1912375D01*
Y316483D01*
X1915422Y313436D01*
X1924563Y331718D02*
Y313436D01*
Y322577D01*
X1927610Y325624D01*
X1933704D01*
X1936751Y322577D01*
Y313436D01*
X1967231D02*
Y331718D01*
X1976372D01*
X1979419Y328671D01*
Y322577D01*
X1976372Y319530D01*
X1967231D01*
X1985513Y313436D02*
X1991607D01*
X1988560D01*
Y331718D01*
X1985513D01*
X2003795Y325624D02*
X2009889D01*
X2012936Y322577D01*
Y313436D01*
X2003795D01*
X2000748Y316483D01*
X2003795Y319530D01*
X2012936D01*
X2022077Y328671D02*
Y325624D01*
X2019030D01*
X2025124D01*
X2022077D01*
Y316483D01*
X2025124Y313436D01*
X2043406D02*
X2037312D01*
X2034265Y316483D01*
Y322577D01*
X2037312Y325624D01*
X2043406D01*
X2046453Y322577D01*
Y319530D01*
X2034265D01*
X2064735Y331718D02*
Y313436D01*
X2055594D01*
X2052547Y316483D01*
Y322577D01*
X2055594Y325624D01*
X2064735D01*
X2095215Y331718D02*
Y313436D01*
Y322577D01*
X2107403D01*
Y331718D01*
Y313436D01*
X2116544D02*
X2122639D01*
X2125685Y316483D01*
Y322577D01*
X2122639Y325624D01*
X2116544D01*
X2113497Y322577D01*
Y316483D01*
X2116544Y313436D01*
X2131779D02*
X2137874D01*
X2134827D01*
Y331718D01*
X2131779D01*
X2156156Y313436D02*
X2150062D01*
X2147015Y316483D01*
Y322577D01*
X2150062Y325624D01*
X2156156D01*
X2159203Y322577D01*
Y319530D01*
X2147015D01*
X2183579Y331718D02*
X2195767D01*
X2189673D01*
Y313436D01*
X2201861Y325624D02*
Y316483D01*
X2204908Y313436D01*
X2214049D01*
Y310389D01*
X2211002Y307342D01*
X2207955D01*
X2214049Y313436D02*
Y325624D01*
X2220143Y307342D02*
Y325624D01*
X2229284D01*
X2232331Y322577D01*
Y316483D01*
X2229284Y313436D01*
X2220143D01*
X2247566D02*
X2241472D01*
X2238425Y316483D01*
Y322577D01*
X2241472Y325624D01*
X2247566D01*
X2250613Y322577D01*
Y319530D01*
X2238425D01*
X701648Y340868D02*
X2281093D01*
X701648Y299720D02*
X2281093D01*
X701648Y340868D02*
Y116840D01*
X2281093Y340868D02*
Y116840D01*
X840808Y340868D02*
Y116840D01*
X1017545Y340868D02*
Y116840D01*
X1358820Y340868D02*
Y116840D01*
X1648297Y340868D02*
Y116840D01*
X1956055Y340868D02*
Y116840D01*
X2084039Y340868D02*
Y116840D01*
X701648Y147320D02*
X2281093D01*
X701648Y116840D02*
X2281093D01*
D37*
X734157Y106676D02*
X731618Y109215D01*
X726539D01*
X724000Y106676D01*
Y104136D01*
X726539Y101597D01*
X731618D01*
X734157Y99058D01*
Y96519D01*
X731618Y93980D01*
X726539D01*
X724000Y96519D01*
X739235Y93980D02*
X744313D01*
X741774D01*
Y109215D01*
X739235D01*
X754470Y93980D02*
X759548D01*
X762088Y96519D01*
Y101597D01*
X759548Y104136D01*
X754470D01*
X751931Y101597D01*
Y96519D01*
X754470Y93980D01*
X769705Y106676D02*
Y104136D01*
X767166D01*
X772244D01*
X769705D01*
Y96519D01*
X772244Y93980D01*
X805254Y109215D02*
Y93980D01*
X797636D01*
X795097Y96519D01*
Y101597D01*
X797636Y104136D01*
X805254D01*
X817950Y93980D02*
X812871D01*
X810332Y96519D01*
Y101597D01*
X812871Y104136D01*
X817950D01*
X820489Y101597D01*
Y99058D01*
X810332D01*
X828106Y93980D02*
Y106676D01*
Y101597D01*
X825567D01*
X830646D01*
X828106D01*
Y106676D01*
X830646Y109215D01*
X838263Y93980D02*
X843341D01*
X840802D01*
Y104136D01*
X838263D01*
X850959Y93980D02*
Y104136D01*
X858576D01*
X861116Y101597D01*
Y93980D01*
X866194D02*
X871272D01*
X868733D01*
Y104136D01*
X866194D01*
X881429Y106676D02*
Y104136D01*
X878890D01*
X883968D01*
X881429D01*
Y96519D01*
X883968Y93980D01*
X891586D02*
X896664D01*
X894125D01*
Y104136D01*
X891586D01*
X906821Y93980D02*
X911899D01*
X914438Y96519D01*
Y101597D01*
X911899Y104136D01*
X906821D01*
X904282Y101597D01*
Y96519D01*
X906821Y93980D01*
X919517D02*
Y104136D01*
X927134D01*
X929673Y101597D01*
Y93980D01*
X934752D02*
X942369D01*
X944909Y96519D01*
X942369Y99058D01*
X937291D01*
X934752Y101597D01*
X937291Y104136D01*
X944909D01*
X965222D02*
X967761D01*
Y101597D01*
X965222D01*
Y104136D01*
Y96519D02*
X967761D01*
Y93980D01*
X965222D01*
Y96519D01*
X997225Y93980D02*
Y109215D01*
X1004843D01*
X1007382Y106676D01*
Y101597D01*
X1004843Y99058D01*
X997225D01*
X1002303D02*
X1007382Y93980D01*
X1014999D02*
X1020078D01*
X1022617Y96519D01*
Y101597D01*
X1020078Y104136D01*
X1014999D01*
X1012460Y101597D01*
Y96519D01*
X1014999Y93980D01*
X1027695Y104136D02*
Y96519D01*
X1030234Y93980D01*
X1037852D01*
Y104136D01*
X1045470Y106676D02*
Y104136D01*
X1042930D01*
X1048009D01*
X1045470D01*
Y96519D01*
X1048009Y93980D01*
X1070861D02*
Y109215D01*
X1078479D01*
X1081018Y106676D01*
Y101597D01*
X1078479Y99058D01*
X1070861D01*
X1088635Y104136D02*
X1093714D01*
X1096253Y101597D01*
Y93980D01*
X1088635D01*
X1086096Y96519D01*
X1088635Y99058D01*
X1096253D01*
X1103871Y106676D02*
Y104136D01*
X1101331D01*
X1106410D01*
X1103871D01*
Y96519D01*
X1106410Y93980D01*
X1114027Y109215D02*
Y93980D01*
Y101597D01*
X1116566Y104136D01*
X1121645D01*
X1124184Y101597D01*
Y93980D01*
X1144497Y109215D02*
Y93980D01*
X1154654D01*
X1167350D02*
X1162272D01*
X1159733Y96519D01*
Y101597D01*
X1162272Y104136D01*
X1167350D01*
X1169889Y101597D01*
Y99058D01*
X1159733D01*
X1174968Y93980D02*
Y104136D01*
X1182585D01*
X1185124Y101597D01*
Y93980D01*
X1195281Y88901D02*
X1197820D01*
X1200359Y91441D01*
Y104136D01*
X1192742D01*
X1190203Y101597D01*
Y96519D01*
X1192742Y93980D01*
X1200359D01*
X1207977Y106676D02*
Y104136D01*
X1205438D01*
X1210516D01*
X1207977D01*
Y96519D01*
X1210516Y93980D01*
X1218134Y109215D02*
Y93980D01*
Y101597D01*
X1220673Y104136D01*
X1225751D01*
X1228290Y101597D01*
Y93980D01*
X997225Y63500D02*
Y78735D01*
X1004843D01*
X1007382Y76196D01*
Y71117D01*
X1004843Y68578D01*
X997225D01*
X1012460Y78735D02*
Y63500D01*
Y71117D01*
X1014999Y73657D01*
X1020078D01*
X1022617Y71117D01*
Y63500D01*
X1027695Y73657D02*
Y66039D01*
X1030234Y63500D01*
X1037852D01*
Y60961D01*
X1035313Y58421D01*
X1032774D01*
X1037852Y63500D02*
Y73657D01*
X1042930Y63500D02*
X1050548D01*
X1053087Y66039D01*
X1050548Y68578D01*
X1045470D01*
X1042930Y71117D01*
X1045470Y73657D01*
X1053087D01*
X1058165Y63500D02*
X1063244D01*
X1060705D01*
Y73657D01*
X1058165D01*
X1081018D02*
X1073400D01*
X1070861Y71117D01*
Y66039D01*
X1073400Y63500D01*
X1081018D01*
X1088635Y73657D02*
X1093714D01*
X1096253Y71117D01*
Y63500D01*
X1088635D01*
X1086096Y66039D01*
X1088635Y68578D01*
X1096253D01*
X1101331Y63500D02*
X1106410D01*
X1103871D01*
Y78735D01*
X1101331D01*
X1129262D02*
Y63500D01*
X1139419D01*
X1152115D02*
X1147037D01*
X1144497Y66039D01*
Y71117D01*
X1147037Y73657D01*
X1152115D01*
X1154654Y71117D01*
Y68578D01*
X1144497D01*
X1159733Y63500D02*
Y73657D01*
X1167350D01*
X1169889Y71117D01*
Y63500D01*
X1180046Y58421D02*
X1182585D01*
X1185124Y60961D01*
Y73657D01*
X1177507D01*
X1174968Y71117D01*
Y66039D01*
X1177507Y63500D01*
X1185124D01*
X1192742Y76196D02*
Y73657D01*
X1190203D01*
X1195281D01*
X1192742D01*
Y66039D01*
X1195281Y63500D01*
X1202898Y78735D02*
Y63500D01*
Y71117D01*
X1205438Y73657D01*
X1210516D01*
X1213055Y71117D01*
Y63500D01*
M02*
