%FSLAX44Y44*%
%MOMM*%
G71*
G01*
G75*
G04 Layer_Color=16711935*
%ADD10C,0.2000*%
%ADD11C,0.3000*%
%ADD12C,0.6000*%
%ADD13C,0.8000*%
%ADD14C,1.0000*%
%ADD15C,0.5000*%
%ADD16C,0.2032*%
%ADD17R,1.5000X1.5000*%
%ADD18C,1.5000*%
%ADD19C,0.9144*%
%ADD20R,2.5000X3.8000*%
%ADD21R,3.8000X2.5000*%
%ADD22R,1.5000X1.5000*%
%ADD23C,1.0000*%
%ADD24C,0.6096*%
%ADD25C,0.6350*%
%ADD26C,0.2500*%
%ADD27C,0.2540*%
%ADD28C,0.1540*%
%ADD29R,1.7032X1.7032*%
%ADD30C,1.7032*%
%ADD31R,2.7032X4.0032*%
%ADD32R,4.0032X2.7032*%
%ADD33R,1.7032X1.7032*%
D29*
X255000Y37000D02*
D03*
X380150Y228650D02*
D03*
X305800Y316400D02*
D03*
Y240200D02*
D03*
X26400D02*
D03*
X305800Y189400D02*
D03*
X26400Y37000D02*
D03*
Y341800D02*
D03*
X305800Y214800D02*
D03*
Y341800D02*
D03*
X26400Y189400D02*
D03*
Y316400D02*
D03*
X305800Y138600D02*
D03*
Y265600D02*
D03*
X26400Y87800D02*
D03*
Y214800D02*
D03*
X305800Y164000D02*
D03*
Y291000D02*
D03*
X26400Y62400D02*
D03*
Y367200D02*
D03*
X305800Y87800D02*
D03*
Y418000D02*
D03*
X26400Y113200D02*
D03*
Y418000D02*
D03*
X305800Y113200D02*
D03*
Y443400D02*
D03*
X26400Y265600D02*
D03*
Y392600D02*
D03*
X305800Y37000D02*
D03*
Y367200D02*
D03*
X26400Y164000D02*
D03*
Y291000D02*
D03*
X305800Y62400D02*
D03*
Y392600D02*
D03*
X26400Y138600D02*
D03*
Y443400D02*
D03*
X340600Y113200D02*
D03*
Y87800D02*
D03*
Y164000D02*
D03*
Y138600D02*
D03*
Y37000D02*
D03*
Y62400D02*
D03*
X466500Y593100D02*
D03*
X77200Y316400D02*
D03*
Y341800D02*
D03*
Y265600D02*
D03*
Y291000D02*
D03*
Y418000D02*
D03*
Y443400D02*
D03*
Y367200D02*
D03*
Y392600D02*
D03*
Y240200D02*
D03*
Y87800D02*
D03*
Y113200D02*
D03*
Y37000D02*
D03*
Y62400D02*
D03*
Y189400D02*
D03*
Y214800D02*
D03*
Y138600D02*
D03*
Y164000D02*
D03*
X391400Y138600D02*
D03*
Y87800D02*
D03*
X255000Y164000D02*
D03*
Y138600D02*
D03*
Y113200D02*
D03*
Y62400D02*
D03*
Y392600D02*
D03*
Y367200D02*
D03*
Y418000D02*
D03*
Y87800D02*
D03*
Y341800D02*
D03*
X391400Y113200D02*
D03*
Y37000D02*
D03*
Y62400D02*
D03*
X255000Y443400D02*
D03*
Y265600D02*
D03*
Y240200D02*
D03*
Y316400D02*
D03*
Y291000D02*
D03*
Y214800D02*
D03*
Y189400D02*
D03*
X391400Y164000D02*
D03*
X371900Y468900D02*
D03*
X461900Y523900D02*
D03*
D30*
X229600Y37000D02*
D03*
X204200D02*
D03*
X178800D02*
D03*
X405550Y228650D02*
D03*
X430950D02*
D03*
X456350D02*
D03*
X280400Y316400D02*
D03*
Y240200D02*
D03*
X51800D02*
D03*
X280400Y189400D02*
D03*
X51800Y37000D02*
D03*
Y341800D02*
D03*
X280400Y214800D02*
D03*
Y341800D02*
D03*
X51800Y189400D02*
D03*
Y316400D02*
D03*
X280400Y138600D02*
D03*
Y265600D02*
D03*
X51800Y87800D02*
D03*
Y214800D02*
D03*
X280400Y164000D02*
D03*
Y291000D02*
D03*
X51800Y62400D02*
D03*
Y367200D02*
D03*
X280400Y87800D02*
D03*
Y418000D02*
D03*
X51800Y113200D02*
D03*
Y418000D02*
D03*
X280400Y113200D02*
D03*
Y443400D02*
D03*
X51800Y265600D02*
D03*
Y392600D02*
D03*
X280400Y37000D02*
D03*
Y367200D02*
D03*
X51800Y164000D02*
D03*
Y291000D02*
D03*
X280400Y62400D02*
D03*
Y392600D02*
D03*
X51800Y138600D02*
D03*
Y443400D02*
D03*
X366000Y113200D02*
D03*
Y87800D02*
D03*
Y164000D02*
D03*
Y138600D02*
D03*
Y37000D02*
D03*
Y62400D02*
D03*
X251900Y578300D02*
D03*
Y552900D02*
D03*
X441100Y593100D02*
D03*
X415700D02*
D03*
X390300D02*
D03*
X102600Y316400D02*
D03*
X128000D02*
D03*
X153400D02*
D03*
X102600Y341800D02*
D03*
X128000D02*
D03*
X153400D02*
D03*
X102600Y265600D02*
D03*
X128000D02*
D03*
X153400D02*
D03*
X102600Y291000D02*
D03*
X128000D02*
D03*
X153400D02*
D03*
X102600Y418000D02*
D03*
X128000D02*
D03*
X153400D02*
D03*
X102600Y443400D02*
D03*
X128000D02*
D03*
X153400D02*
D03*
X102600Y367200D02*
D03*
X128000D02*
D03*
X153400D02*
D03*
X102600Y392600D02*
D03*
X128000D02*
D03*
X153400D02*
D03*
X102600Y240200D02*
D03*
X128000D02*
D03*
X153400D02*
D03*
X102600Y87800D02*
D03*
X128000D02*
D03*
X153400D02*
D03*
X102600Y113200D02*
D03*
X128000D02*
D03*
X153400D02*
D03*
X102600Y37000D02*
D03*
X128000D02*
D03*
X153400D02*
D03*
X102600Y62400D02*
D03*
X128000D02*
D03*
X153400D02*
D03*
X102600Y189400D02*
D03*
X128000D02*
D03*
X153400D02*
D03*
X102600Y214800D02*
D03*
X128000D02*
D03*
X153400D02*
D03*
X102600Y138600D02*
D03*
X128000D02*
D03*
X153400D02*
D03*
X102600Y164000D02*
D03*
X128000D02*
D03*
X153400D02*
D03*
X416800Y138600D02*
D03*
X442200D02*
D03*
X467600D02*
D03*
X416800Y87800D02*
D03*
X442200D02*
D03*
X467600D02*
D03*
X229600Y164000D02*
D03*
X204200D02*
D03*
X178800D02*
D03*
X229600Y138600D02*
D03*
X204200D02*
D03*
X178800D02*
D03*
X229600Y113200D02*
D03*
X204200D02*
D03*
X178800D02*
D03*
X229600Y62400D02*
D03*
X204200D02*
D03*
X178800D02*
D03*
X229600Y392600D02*
D03*
X204200D02*
D03*
X178800D02*
D03*
X229600Y367200D02*
D03*
X204200D02*
D03*
X178800D02*
D03*
X229600Y418000D02*
D03*
X204200D02*
D03*
X178800D02*
D03*
X229600Y87800D02*
D03*
X204200D02*
D03*
X178800D02*
D03*
X229600Y341800D02*
D03*
X204200D02*
D03*
X178800D02*
D03*
X416800Y113200D02*
D03*
X442200D02*
D03*
X467600D02*
D03*
X416800Y37000D02*
D03*
X442200D02*
D03*
X467600D02*
D03*
X416800Y62400D02*
D03*
X442200D02*
D03*
X467600D02*
D03*
X229600Y443400D02*
D03*
X204200D02*
D03*
X178800D02*
D03*
X229600Y265600D02*
D03*
X204200D02*
D03*
X178800D02*
D03*
X229600Y240200D02*
D03*
X204200D02*
D03*
X178800D02*
D03*
X229600Y316400D02*
D03*
X204200D02*
D03*
X178800D02*
D03*
X229600Y291000D02*
D03*
X204200D02*
D03*
X178800D02*
D03*
X229600Y214800D02*
D03*
X204200D02*
D03*
X178800D02*
D03*
X229600Y189400D02*
D03*
X204200D02*
D03*
X178800D02*
D03*
X416800Y164000D02*
D03*
X442200D02*
D03*
X467600D02*
D03*
X542700Y546300D02*
D03*
X517300Y520900D02*
D03*
X542700D02*
D03*
X517300Y495500D02*
D03*
X542700D02*
D03*
X517300Y470100D02*
D03*
X542700D02*
D03*
X517300Y444700D02*
D03*
X542700D02*
D03*
X517300Y419300D02*
D03*
X542700D02*
D03*
X517300Y393900D02*
D03*
X542700D02*
D03*
X517300Y368500D02*
D03*
X542700D02*
D03*
X517300Y343100D02*
D03*
X542700D02*
D03*
X517300Y317700D02*
D03*
X542700D02*
D03*
X517300Y292300D02*
D03*
X542700D02*
D03*
X517300Y266900D02*
D03*
X542700D02*
D03*
X517300Y241500D02*
D03*
X542700D02*
D03*
X517300Y216100D02*
D03*
X542700D02*
D03*
X517300Y190700D02*
D03*
X542700D02*
D03*
X517300Y165300D02*
D03*
X542700D02*
D03*
X517300Y139900D02*
D03*
X542700D02*
D03*
X517300Y114500D02*
D03*
X542700D02*
D03*
X517300Y89100D02*
D03*
X542700D02*
D03*
X517300Y63700D02*
D03*
X542700D02*
D03*
X371900Y443500D02*
D03*
Y418100D02*
D03*
Y392700D02*
D03*
Y367300D02*
D03*
Y341900D02*
D03*
Y316500D02*
D03*
Y291100D02*
D03*
X448100Y468900D02*
D03*
Y443500D02*
D03*
Y418100D02*
D03*
Y392700D02*
D03*
Y367300D02*
D03*
Y341900D02*
D03*
Y316500D02*
D03*
Y291100D02*
D03*
X385700Y523900D02*
D03*
X411100D02*
D03*
X436500D02*
D03*
D31*
X87500Y575500D02*
D03*
X147500D02*
D03*
D32*
X122500Y527000D02*
D03*
D33*
X251900Y527500D02*
D03*
X517300Y546300D02*
D03*
M02*
