%FSLAX44Y44*%
%MOMM*%
G71*
G01*
G75*
G04 Layer_Physical_Order=2*
G04 Layer_Color=16711680*
%ADD10C,0.2000*%
%ADD11C,0.3000*%
%ADD12C,0.6000*%
%ADD13C,0.8000*%
%ADD14C,1.0000*%
%ADD15C,0.5000*%
%ADD16C,0.2032*%
%ADD17R,1.5000X1.5000*%
%ADD18C,1.5000*%
%ADD19C,0.9144*%
%ADD20R,2.5000X3.8000*%
%ADD21R,3.8000X2.5000*%
%ADD22R,1.5000X1.5000*%
%ADD23C,1.0000*%
%ADD24C,0.6096*%
%ADD25C,0.6350*%
G36*
X451460Y553176D02*
Y537750D01*
X448050D01*
Y533574D01*
X446847Y533166D01*
X446378Y533778D01*
X443484Y535998D01*
X440115Y537393D01*
X436500Y537869D01*
X432884Y537393D01*
X429515Y535998D01*
X426622Y533778D01*
X424435Y530928D01*
X423165D01*
X420978Y533778D01*
X418084Y535998D01*
X414715Y537393D01*
X411100Y537869D01*
X407484Y537393D01*
X404115Y535998D01*
X401222Y533778D01*
X399035Y530928D01*
X397765D01*
X395578Y533778D01*
X392685Y535998D01*
X389315Y537393D01*
X388240Y537535D01*
Y523900D01*
Y510265D01*
X389315Y510406D01*
X392685Y511802D01*
X395578Y514022D01*
X397765Y516872D01*
X399035D01*
X401222Y514022D01*
X404115Y511802D01*
X407484Y510406D01*
X411100Y509930D01*
X414159Y510333D01*
X434246Y490247D01*
X435785Y489066D01*
X437577Y488324D01*
X439500Y488070D01*
X450723D01*
X486646Y452146D01*
X486646D01*
X486646Y452146D01*
X486647Y452146D01*
Y452146D01*
X488185Y450966D01*
X489977Y450224D01*
X491900Y449970D01*
X503349D01*
X504055Y448914D01*
X503806Y448316D01*
X503665Y447240D01*
X517300D01*
Y442160D01*
X503665D01*
X503806Y441084D01*
X505202Y437715D01*
X507422Y434822D01*
X510315Y432602D01*
X513554Y431260D01*
Y430219D01*
X513523Y429977D01*
X511596Y429179D01*
X509234Y427366D01*
X508745Y426730D01*
X486650D01*
X484727Y426476D01*
X482935Y425734D01*
X481397Y424553D01*
X470321Y413477D01*
X462266D01*
X461593Y414484D01*
X462069Y418100D01*
X461593Y421715D01*
X460198Y425084D01*
X457978Y427978D01*
X455128Y430165D01*
Y431435D01*
X457978Y433622D01*
X460198Y436515D01*
X461593Y439884D01*
X462069Y443500D01*
X461593Y447115D01*
X460198Y450485D01*
X457978Y453378D01*
X455128Y455565D01*
Y456835D01*
X457978Y459022D01*
X460198Y461915D01*
X461593Y465284D01*
X462069Y468900D01*
X461593Y472515D01*
X460198Y475885D01*
X457978Y478778D01*
X455085Y480998D01*
X451716Y482393D01*
X448100Y482869D01*
X444484Y482393D01*
X441115Y480998D01*
X438222Y478778D01*
X437492Y477826D01*
X385750D01*
Y482750D01*
X372813D01*
X348839Y506724D01*
Y551826D01*
X359074Y562061D01*
X442576D01*
X451460Y553176D01*
D02*
G37*
G36*
X358050Y467986D02*
Y455050D01*
X362226D01*
X362634Y453847D01*
X362022Y453378D01*
X359802Y450485D01*
X358406Y447115D01*
X357930Y443500D01*
X358406Y439884D01*
X359802Y436515D01*
X362022Y433622D01*
X364872Y431435D01*
Y430165D01*
X362022Y427978D01*
X359802Y425084D01*
X358406Y421715D01*
X357930Y418100D01*
X358406Y414484D01*
X359802Y411115D01*
X362022Y408222D01*
X364872Y406035D01*
Y404765D01*
X362022Y402578D01*
X359802Y399684D01*
X358406Y396315D01*
X358265Y395240D01*
X385535D01*
X385393Y396315D01*
X383998Y399684D01*
X381778Y402578D01*
X378928Y404765D01*
Y406035D01*
X381778Y408222D01*
X383998Y411115D01*
X385393Y414484D01*
X385869Y418100D01*
X385393Y421715D01*
X383998Y425084D01*
X381778Y427978D01*
X378928Y430165D01*
Y431435D01*
X381778Y433622D01*
X383998Y436515D01*
X385393Y439884D01*
X385869Y443500D01*
X385393Y447115D01*
X383998Y450485D01*
X381778Y453378D01*
X381166Y453847D01*
X381574Y455050D01*
X385750D01*
Y459973D01*
X437492D01*
X438222Y459022D01*
X441072Y456835D01*
Y455565D01*
X438222Y453378D01*
X436002Y450485D01*
X434606Y447115D01*
X434130Y443500D01*
X434606Y439884D01*
X436002Y436515D01*
X438222Y433622D01*
X441072Y431435D01*
Y430165D01*
X438222Y427978D01*
X436002Y425084D01*
X434606Y421715D01*
X434130Y418100D01*
X434606Y414484D01*
X433934Y413477D01*
X423348D01*
X421425Y413224D01*
X419633Y412482D01*
X418094Y411301D01*
X392047Y385253D01*
X390866Y383714D01*
X390124Y381923D01*
X389870Y380000D01*
Y344977D01*
X386992Y342099D01*
X385789Y342507D01*
X385393Y345515D01*
X383998Y348885D01*
X381778Y351778D01*
X378928Y353965D01*
Y355235D01*
X381778Y357422D01*
X383998Y360315D01*
X385393Y363684D01*
X385535Y364760D01*
X358265D01*
X358406Y363684D01*
X359802Y360315D01*
X362022Y357422D01*
X364872Y355235D01*
Y353965D01*
X362022Y351778D01*
X359802Y348885D01*
X358406Y345515D01*
X357930Y341900D01*
X358406Y338284D01*
X359802Y334915D01*
X362022Y332022D01*
X364872Y329835D01*
Y328565D01*
X362022Y326378D01*
X359802Y323484D01*
X359697Y323231D01*
X358676Y321870D01*
X357410Y321780D01*
X338098Y341092D01*
Y486279D01*
X339271Y486765D01*
X358050Y467986D01*
D02*
G37*
G36*
X519691Y558783D02*
X519204Y557610D01*
X505990D01*
Y534990D01*
X528610D01*
Y548204D01*
X529783Y548690D01*
X531395Y547079D01*
X531292Y546300D01*
X531681Y543348D01*
X532261Y541948D01*
Y525252D01*
X531681Y523853D01*
X531292Y520900D01*
X531681Y517948D01*
X532821Y515196D01*
X534634Y512834D01*
X536996Y511021D01*
X538923Y510223D01*
X538954Y509981D01*
Y508940D01*
X535715Y507598D01*
X532822Y505378D01*
X530602Y502485D01*
X529260Y499246D01*
X528219D01*
X527977Y499277D01*
X527179Y501204D01*
X525366Y503566D01*
X523004Y505379D01*
X520252Y506519D01*
X517300Y506908D01*
X514347Y506519D01*
X511596Y505379D01*
X509234Y503566D01*
X507421Y501204D01*
X506281Y498452D01*
X505892Y495500D01*
X506281Y492547D01*
X507421Y489796D01*
X509234Y487434D01*
X511596Y485621D01*
X514347Y484481D01*
X517300Y484092D01*
X520252Y484481D01*
X523004Y485621D01*
X525366Y487434D01*
X527179Y489796D01*
X527977Y491723D01*
X528219Y491754D01*
X529260D01*
X530602Y488515D01*
X532822Y485622D01*
X535715Y483402D01*
X538954Y482060D01*
Y481019D01*
X538923Y480777D01*
X536996Y479979D01*
X534634Y478166D01*
X532821Y475804D01*
X531681Y473052D01*
X531292Y470100D01*
X531681Y467147D01*
X532308Y465635D01*
X531534Y464627D01*
X530000Y464830D01*
X528502D01*
X527796Y465886D01*
X528319Y467147D01*
X528708Y470100D01*
X528319Y473052D01*
X527179Y475804D01*
X525366Y478166D01*
X523004Y479979D01*
X520252Y481119D01*
X517300Y481508D01*
X514347Y481119D01*
X511596Y479979D01*
X509234Y478166D01*
X507421Y475804D01*
X506281Y473052D01*
X505892Y470100D01*
X506281Y467147D01*
X506804Y465886D01*
X506098Y464830D01*
X494977D01*
X459053Y500754D01*
X457515Y501934D01*
X455723Y502676D01*
X453800Y502930D01*
X442577D01*
X436699Y508808D01*
X437107Y510010D01*
X440115Y510406D01*
X443484Y511802D01*
X446378Y514022D01*
X446847Y514634D01*
X448050Y514226D01*
Y510050D01*
X475750D01*
Y537750D01*
X472339D01*
Y557500D01*
X471983Y560202D01*
X471678Y560939D01*
X470940Y562720D01*
X469281Y564882D01*
X461663Y572500D01*
X468414Y579250D01*
X480350D01*
Y582661D01*
X495813D01*
X519691Y558783D01*
D02*
G37*
G36*
X63350Y429550D02*
Y404150D01*
Y378750D01*
Y353350D01*
Y327950D01*
Y302550D01*
Y277150D01*
Y251750D01*
Y226350D01*
Y200950D01*
Y175550D01*
Y150150D01*
Y124750D01*
Y99350D01*
Y73950D01*
Y49268D01*
X62450Y48372D01*
X40250Y48451D01*
Y48550D01*
Y73950D01*
Y99350D01*
Y124750D01*
Y150150D01*
Y175550D01*
Y200950D01*
Y226350D01*
Y251750D01*
Y277150D01*
Y302550D01*
Y327950D01*
Y353350D01*
Y378750D01*
Y404150D01*
Y429550D01*
Y431000D01*
X63350D01*
Y429550D01*
D02*
G37*
G36*
X552314Y556985D02*
X551112Y556577D01*
X550082Y557919D01*
X507519Y600482D01*
X505357Y602141D01*
X502839Y603184D01*
X500137Y603539D01*
X480350D01*
Y606950D01*
X452650D01*
Y605500D01*
X447356D01*
X444716Y606593D01*
X441100Y607069D01*
X437485Y606593D01*
X434844Y605500D01*
X396556D01*
X393916Y606593D01*
X390300Y607069D01*
X386684Y606593D01*
X384044Y605500D01*
X378000D01*
Y599597D01*
X376807Y596716D01*
X376331Y593100D01*
X376807Y589484D01*
X378000Y586603D01*
Y582939D01*
X354750D01*
X352048Y582583D01*
X349530Y581540D01*
X347368Y579882D01*
X331518Y564031D01*
X331394Y563870D01*
X331018Y563582D01*
X329360Y561419D01*
X328317Y558902D01*
X327961Y556200D01*
Y506538D01*
X326788Y506052D01*
X273245Y559595D01*
X270874Y561414D01*
X268113Y562558D01*
X265150Y562948D01*
X264000D01*
Y571320D01*
X265394Y574684D01*
X265870Y578300D01*
X265394Y581915D01*
X264000Y585280D01*
Y590500D01*
X265000Y591500D01*
X256224D01*
X255516Y591793D01*
X251900Y592269D01*
X248284Y591793D01*
X247576Y591500D01*
X239000D01*
Y583348D01*
X238407Y581915D01*
X237931Y578300D01*
X238407Y574684D01*
X239000Y573252D01*
Y557948D01*
X238407Y556515D01*
X237931Y552900D01*
X238407Y549284D01*
X239000Y547852D01*
Y541350D01*
X238050D01*
Y513650D01*
X265750D01*
Y533050D01*
X266923Y533537D01*
X315202Y485258D01*
Y457250D01*
X291950D01*
Y456000D01*
X268850D01*
Y457250D01*
X241150D01*
Y456000D01*
X235373D01*
X233216Y456893D01*
X229600Y457369D01*
X225984Y456893D01*
X223827Y456000D01*
X209973D01*
X207815Y456893D01*
X204200Y457369D01*
X200584Y456893D01*
X198427Y456000D01*
X184573D01*
X182416Y456893D01*
X178800Y457369D01*
X175184Y456893D01*
X173027Y456000D01*
X159173D01*
X157015Y456893D01*
X153400Y457369D01*
X149784Y456893D01*
X147627Y456000D01*
X133773D01*
X131615Y456893D01*
X128000Y457369D01*
X124384Y456893D01*
X122227Y456000D01*
X108373D01*
X106215Y456893D01*
X102600Y457369D01*
X98984Y456893D01*
X96827Y456000D01*
X91050D01*
Y457250D01*
X63350D01*
Y456000D01*
X40250D01*
Y457250D01*
X12550D01*
Y429550D01*
Y404150D01*
Y378750D01*
Y353350D01*
Y327950D01*
Y302550D01*
Y277150D01*
Y251750D01*
Y226350D01*
Y200950D01*
Y175550D01*
Y150150D01*
Y124750D01*
Y99350D01*
Y73950D01*
Y48550D01*
Y23150D01*
Y23150D01*
X101693D01*
X102600Y23030D01*
X103507Y23150D01*
X127093D01*
X128000Y23030D01*
X128907Y23150D01*
X152493D01*
X153400Y23030D01*
X154307Y23150D01*
X177893D01*
X178800Y23030D01*
X179707Y23150D01*
X203293D01*
X204200Y23030D01*
X205107Y23150D01*
X228693D01*
X229600Y23030D01*
X230507Y23150D01*
X319650D01*
Y23150D01*
Y48550D01*
Y73950D01*
Y99350D01*
Y124750D01*
Y150150D01*
Y175550D01*
Y200950D01*
Y226350D01*
Y231867D01*
X320823Y232353D01*
X360588Y192588D01*
X360588D01*
X360588Y192588D01*
X360588D01*
X360588Y192588D01*
Y192588D01*
X360588Y192588D01*
Y192588D01*
X362437Y191169D01*
X364590Y190278D01*
X366900Y189973D01*
X471900D01*
X474210Y190278D01*
X476363Y191169D01*
X478212Y192588D01*
X493212Y207588D01*
X493212Y207588D01*
X493212Y207588D01*
X494630Y209437D01*
X495522Y211590D01*
X495826Y213900D01*
Y252300D01*
X495522Y254610D01*
X494630Y256763D01*
X493212Y258612D01*
X461913Y289911D01*
X462069Y291100D01*
X461593Y294715D01*
X460198Y298085D01*
X457978Y300978D01*
X455128Y303165D01*
Y304435D01*
X457978Y306622D01*
X460198Y309515D01*
X461593Y312884D01*
X462069Y316500D01*
X461593Y320115D01*
X460198Y323484D01*
X457978Y326378D01*
X455128Y328565D01*
Y329835D01*
X457978Y332022D01*
X460198Y334915D01*
X461593Y338284D01*
X462069Y341900D01*
X461593Y345515D01*
X460198Y348885D01*
X457978Y351778D01*
X455128Y353965D01*
Y355235D01*
X457978Y357422D01*
X460198Y360315D01*
X461593Y363684D01*
X461735Y364760D01*
X434465D01*
X434606Y363684D01*
X436002Y360315D01*
X438222Y357422D01*
X441072Y355235D01*
Y353965D01*
X438222Y351778D01*
X436002Y348885D01*
X434606Y345515D01*
X434130Y341900D01*
X434606Y338284D01*
X436002Y334915D01*
X438222Y332022D01*
X441072Y329835D01*
Y328565D01*
X438222Y326378D01*
X436002Y323484D01*
X434606Y320115D01*
X434130Y316500D01*
X434606Y312884D01*
X436002Y309515D01*
X438222Y306622D01*
X441072Y304435D01*
Y303165D01*
X438222Y300978D01*
X436002Y298085D01*
X434606Y294715D01*
X434130Y291100D01*
X434606Y287484D01*
X436002Y284115D01*
X438222Y281222D01*
X441115Y279002D01*
X444484Y277606D01*
X448100Y277130D01*
X449289Y277287D01*
X477974Y248602D01*
Y217597D01*
X468203Y207826D01*
X370597D01*
X331826Y246597D01*
Y248500D01*
X331726Y249260D01*
X331522Y250810D01*
X331522Y250810D01*
D01*
X331369Y251179D01*
X330630Y252963D01*
X330630Y252963D01*
X330630Y252963D01*
X329872Y253951D01*
X329212Y254811D01*
X319650Y264373D01*
Y277150D01*
Y302550D01*
Y325501D01*
X320823Y325987D01*
X341905Y304905D01*
X341905Y304905D01*
X358267Y288543D01*
X358406Y287484D01*
X359802Y284115D01*
X362022Y281222D01*
X364915Y279002D01*
X368284Y277606D01*
X371900Y277130D01*
X375516Y277606D01*
X378885Y279002D01*
X381778Y281222D01*
X383998Y284115D01*
X385393Y287484D01*
X385869Y291100D01*
X385393Y294715D01*
X383998Y298085D01*
X381778Y300978D01*
X378928Y303165D01*
Y304435D01*
X381778Y306622D01*
X383998Y309515D01*
X385393Y312884D01*
X385869Y316500D01*
X385467Y319559D01*
X399300Y333393D01*
X400474Y332907D01*
Y288900D01*
X400474Y288900D01*
X400474D01*
X400778Y286590D01*
X401670Y284437D01*
X403088Y282588D01*
X446514Y239162D01*
X446472Y238528D01*
X444285Y235678D01*
X443015D01*
X440828Y238528D01*
X437935Y240748D01*
X434566Y242143D01*
X430950Y242619D01*
X427334Y242143D01*
X423965Y240748D01*
X421072Y238528D01*
X418885Y235678D01*
X417615D01*
X415428Y238528D01*
X412535Y240748D01*
X409166Y242143D01*
X405550Y242619D01*
X401934Y242143D01*
X398565Y240748D01*
X395672Y238528D01*
X395203Y237916D01*
X394000Y238324D01*
Y242500D01*
X366300D01*
Y214800D01*
X394000D01*
Y218976D01*
X395203Y219384D01*
X395672Y218772D01*
X398565Y216552D01*
X401934Y215156D01*
X405550Y214680D01*
X409166Y215156D01*
X412535Y216552D01*
X415428Y218772D01*
X417615Y221622D01*
X418885D01*
X421072Y218772D01*
X423965Y216552D01*
X427334Y215156D01*
X430950Y214680D01*
X434566Y215156D01*
X437935Y216552D01*
X440828Y218772D01*
X443015Y221622D01*
X444285D01*
X446472Y218772D01*
X449365Y216552D01*
X452734Y215156D01*
X456350Y214680D01*
X459966Y215156D01*
X463335Y216552D01*
X466228Y218772D01*
X468448Y221665D01*
X469843Y225034D01*
X470320Y228650D01*
X469843Y232265D01*
X468448Y235635D01*
X466228Y238528D01*
X465276Y239258D01*
Y241950D01*
X465276Y241950D01*
X465276Y241950D01*
Y241950D01*
X465276D01*
X465276Y241950D01*
X464972Y244260D01*
X464081Y246413D01*
X462662Y248262D01*
X418326Y292597D01*
Y335092D01*
X418940Y335892D01*
X420041Y338549D01*
X420416Y341400D01*
X420041Y344251D01*
X418940Y346908D01*
X417190Y349189D01*
X414908Y350940D01*
X412251Y352041D01*
X409400Y352416D01*
X406549Y352041D01*
X405785Y351725D01*
X404729Y352430D01*
Y376922D01*
X426425Y398618D01*
X434417D01*
X435123Y397562D01*
X434606Y396315D01*
X434465Y395240D01*
X461735D01*
X461593Y396315D01*
X461077Y397562D01*
X461782Y398618D01*
X473398D01*
X475321Y398871D01*
X477113Y399614D01*
X478652Y400794D01*
X478652Y400794D01*
X478652Y400794D01*
X489728Y411870D01*
X508745D01*
X509234Y411234D01*
X511596Y409421D01*
X514347Y408281D01*
X517300Y407892D01*
X520252Y408281D01*
X523004Y409421D01*
X525366Y411234D01*
X527179Y413596D01*
X528319Y416348D01*
X528708Y419300D01*
X528319Y422253D01*
X527179Y425004D01*
X525366Y427366D01*
X523004Y429179D01*
X521077Y429977D01*
X521046Y430219D01*
Y431260D01*
X524285Y432602D01*
X527178Y434822D01*
X529398Y437715D01*
X530740Y440954D01*
X531781D01*
X532023Y440923D01*
X532821Y438996D01*
X534634Y436634D01*
X536996Y434821D01*
X539748Y433681D01*
X542700Y433292D01*
X545653Y433681D01*
X548404Y434821D01*
X550766Y436634D01*
X551112Y437084D01*
X552314Y436675D01*
Y427325D01*
X551112Y426916D01*
X550766Y427366D01*
X548404Y429179D01*
X545653Y430319D01*
X542700Y430708D01*
X539748Y430319D01*
X536996Y429179D01*
X534634Y427366D01*
X532821Y425004D01*
X531681Y422253D01*
X531292Y419300D01*
X531681Y416348D01*
X532821Y413596D01*
X534634Y411234D01*
X536996Y409421D01*
X538923Y408623D01*
X538954Y408381D01*
Y407340D01*
X535715Y405998D01*
X532822Y403778D01*
X530602Y400885D01*
X529260Y397646D01*
X528219D01*
X527977Y397677D01*
X527179Y399604D01*
X525366Y401966D01*
X523004Y403779D01*
X520252Y404919D01*
X517300Y405308D01*
X514347Y404919D01*
X511596Y403779D01*
X509234Y401966D01*
X507421Y399604D01*
X506281Y396852D01*
X505892Y393900D01*
X506281Y390947D01*
X507421Y388196D01*
X509234Y385834D01*
X511596Y384021D01*
X514347Y382881D01*
X517300Y382492D01*
X520252Y382881D01*
X523004Y384021D01*
X525366Y385834D01*
X527179Y388196D01*
X527977Y390123D01*
X528219Y390154D01*
X529260D01*
X530602Y386915D01*
X532822Y384022D01*
X535715Y381802D01*
X538954Y380460D01*
Y379419D01*
X538923Y379177D01*
X536996Y378379D01*
X534634Y376566D01*
X532821Y374204D01*
X531681Y371452D01*
X531292Y368500D01*
X531681Y365547D01*
X532821Y362796D01*
X534634Y360434D01*
X536996Y358621D01*
X539748Y357481D01*
X542700Y357092D01*
X545653Y357481D01*
X548404Y358621D01*
X550766Y360434D01*
X551112Y360884D01*
X552314Y360475D01*
Y351125D01*
X551112Y350716D01*
X550766Y351166D01*
X548404Y352979D01*
X545653Y354119D01*
X542700Y354508D01*
X539748Y354119D01*
X536996Y352979D01*
X534634Y351166D01*
X532821Y348804D01*
X531681Y346053D01*
X531292Y343100D01*
X531681Y340148D01*
X532821Y337396D01*
X534634Y335034D01*
X536996Y333221D01*
X538923Y332423D01*
X538954Y332181D01*
Y331140D01*
X535715Y329798D01*
X532822Y327578D01*
X530602Y324685D01*
X529260Y321446D01*
X528219D01*
X527977Y321477D01*
X527179Y323404D01*
X525366Y325766D01*
X523004Y327579D01*
X520252Y328719D01*
X517300Y329108D01*
X514347Y328719D01*
X511596Y327579D01*
X509234Y325766D01*
X507421Y323404D01*
X506281Y320653D01*
X505892Y317700D01*
X506281Y314748D01*
X507421Y311996D01*
X509234Y309634D01*
X511596Y307821D01*
X514347Y306681D01*
X517300Y306292D01*
X520252Y306681D01*
X523004Y307821D01*
X525366Y309634D01*
X527179Y311996D01*
X527977Y313923D01*
X528219Y313954D01*
X529260D01*
X530602Y310715D01*
X532822Y307822D01*
X535715Y305602D01*
X538954Y304260D01*
Y303219D01*
X538923Y302977D01*
X536996Y302179D01*
X534634Y300366D01*
X532821Y298004D01*
X531681Y295252D01*
X531292Y292300D01*
X531681Y289347D01*
X532821Y286596D01*
X534634Y284234D01*
X536996Y282421D01*
X539748Y281281D01*
X542700Y280892D01*
X545653Y281281D01*
X548404Y282421D01*
X550766Y284234D01*
X551112Y284684D01*
X552314Y284275D01*
Y274925D01*
X551112Y274516D01*
X550766Y274966D01*
X548404Y276779D01*
X545653Y277919D01*
X542700Y278308D01*
X539748Y277919D01*
X536996Y276779D01*
X534634Y274966D01*
X532821Y272604D01*
X531681Y269853D01*
X531292Y266900D01*
X531681Y263948D01*
X532821Y261196D01*
X534634Y258834D01*
X536996Y257021D01*
X539748Y255881D01*
X542700Y255492D01*
X545653Y255881D01*
X548404Y257021D01*
X550766Y258834D01*
X551112Y259284D01*
X552314Y258875D01*
Y249525D01*
X551112Y249116D01*
X550766Y249566D01*
X548404Y251379D01*
X545653Y252519D01*
X542700Y252908D01*
X539748Y252519D01*
X536996Y251379D01*
X534634Y249566D01*
X532821Y247204D01*
X532023Y245277D01*
X531781Y245246D01*
X530740D01*
X529398Y248485D01*
X527178Y251378D01*
X524285Y253598D01*
X521046Y254940D01*
Y255981D01*
X521077Y256223D01*
X523004Y257021D01*
X525366Y258834D01*
X527179Y261196D01*
X528319Y263948D01*
X528708Y266900D01*
X528319Y269853D01*
X527179Y272604D01*
X525366Y274966D01*
X523004Y276779D01*
X520252Y277919D01*
X517300Y278308D01*
X514347Y277919D01*
X511596Y276779D01*
X509234Y274966D01*
X507421Y272604D01*
X506281Y269853D01*
X505892Y266900D01*
X506281Y263948D01*
X507421Y261196D01*
X509234Y258834D01*
X511596Y257021D01*
X513523Y256223D01*
X513554Y255981D01*
Y254940D01*
X510315Y253598D01*
X507422Y251378D01*
X505202Y248485D01*
X503806Y245116D01*
X503665Y244040D01*
X517300D01*
Y238960D01*
X503665D01*
X503806Y237884D01*
X505202Y234515D01*
X507422Y231622D01*
X510315Y229402D01*
X513554Y228060D01*
Y227019D01*
X513523Y226777D01*
X511596Y225979D01*
X509234Y224166D01*
X507421Y221804D01*
X506281Y219053D01*
X505892Y216100D01*
X506281Y213148D01*
X507421Y210396D01*
X509234Y208034D01*
X511596Y206221D01*
X514347Y205081D01*
X517300Y204692D01*
X520252Y205081D01*
X523004Y206221D01*
X525366Y208034D01*
X527179Y210396D01*
X528319Y213148D01*
X528708Y216100D01*
X528319Y219053D01*
X527179Y221804D01*
X525366Y224166D01*
X523004Y225979D01*
X521077Y226777D01*
X521046Y227019D01*
Y228060D01*
X524285Y229402D01*
X527178Y231622D01*
X529398Y234515D01*
X530740Y237754D01*
X531781D01*
X532023Y237723D01*
X532821Y235796D01*
X534634Y233434D01*
X536996Y231621D01*
X539748Y230481D01*
X542700Y230092D01*
X545653Y230481D01*
X548404Y231621D01*
X550766Y233434D01*
X551112Y233884D01*
X552314Y233475D01*
Y224125D01*
X551112Y223716D01*
X550766Y224166D01*
X548404Y225979D01*
X545653Y227119D01*
X542700Y227508D01*
X539748Y227119D01*
X536996Y225979D01*
X534634Y224166D01*
X532821Y221804D01*
X531681Y219053D01*
X531292Y216100D01*
X531681Y213148D01*
X532821Y210396D01*
X534634Y208034D01*
X536996Y206221D01*
X538923Y205423D01*
X538954Y205181D01*
Y204140D01*
X535715Y202798D01*
X532822Y200578D01*
X530602Y197685D01*
X529260Y194446D01*
X528219D01*
X527977Y194477D01*
X527179Y196404D01*
X525366Y198766D01*
X523004Y200579D01*
X520252Y201719D01*
X517300Y202108D01*
X514347Y201719D01*
X511596Y200579D01*
X509234Y198766D01*
X507421Y196404D01*
X506281Y193652D01*
X505892Y190700D01*
X506281Y187747D01*
X507421Y184996D01*
X509234Y182634D01*
X511596Y180821D01*
X514347Y179681D01*
X517300Y179292D01*
X520252Y179681D01*
X523004Y180821D01*
X525366Y182634D01*
X527179Y184996D01*
X527977Y186923D01*
X528219Y186954D01*
X529260D01*
X530602Y183715D01*
X532822Y180822D01*
X535715Y178602D01*
X538954Y177260D01*
Y176219D01*
X538923Y175977D01*
X536996Y175179D01*
X534634Y173366D01*
X532821Y171004D01*
X531681Y168253D01*
X531292Y165300D01*
X531681Y162348D01*
X532821Y159596D01*
X534634Y157234D01*
X536996Y155421D01*
X538923Y154623D01*
X538954Y154381D01*
Y153340D01*
X535715Y151998D01*
X532822Y149778D01*
X530602Y146885D01*
X529260Y143646D01*
X528219D01*
X527977Y143677D01*
X527179Y145604D01*
X525366Y147966D01*
X523004Y149779D01*
X520252Y150919D01*
X517300Y151308D01*
X514347Y150919D01*
X511596Y149779D01*
X509234Y147966D01*
X507421Y145604D01*
X506281Y142852D01*
X505892Y139900D01*
X506281Y136947D01*
X507421Y134196D01*
X509234Y131834D01*
X511596Y130021D01*
X514347Y128881D01*
X517300Y128492D01*
X520252Y128881D01*
X523004Y130021D01*
X525366Y131834D01*
X527179Y134196D01*
X527977Y136123D01*
X528219Y136154D01*
X529260D01*
X530602Y132915D01*
X532822Y130022D01*
X535715Y127802D01*
X538954Y126460D01*
Y125419D01*
X538923Y125177D01*
X536996Y124379D01*
X534634Y122566D01*
X532821Y120204D01*
X531681Y117452D01*
X531292Y114500D01*
X531681Y111547D01*
X532821Y108796D01*
X534634Y106434D01*
X536996Y104621D01*
X539748Y103481D01*
X542700Y103092D01*
X545653Y103481D01*
X548404Y104621D01*
X550766Y106434D01*
X551112Y106884D01*
X552314Y106475D01*
Y97125D01*
X551112Y96716D01*
X550766Y97166D01*
X548404Y98979D01*
X545653Y100119D01*
X542700Y100508D01*
X539748Y100119D01*
X536996Y98979D01*
X534634Y97166D01*
X532821Y94804D01*
X531681Y92052D01*
X531292Y89100D01*
X531681Y86147D01*
X532821Y83396D01*
X534634Y81034D01*
X536996Y79221D01*
X539748Y78081D01*
X542700Y77692D01*
X545653Y78081D01*
X548404Y79221D01*
X550766Y81034D01*
X551112Y81484D01*
X552314Y81075D01*
Y71725D01*
X551112Y71316D01*
X550766Y71766D01*
X548404Y73579D01*
X545653Y74719D01*
X542700Y75108D01*
X539748Y74719D01*
X536996Y73579D01*
X534634Y71766D01*
X532821Y69404D01*
X532023Y67477D01*
X531781Y67446D01*
X530740D01*
X529398Y70685D01*
X527178Y73578D01*
X524285Y75798D01*
X521046Y77140D01*
Y78181D01*
X521077Y78423D01*
X523004Y79221D01*
X525366Y81034D01*
X527179Y83396D01*
X528319Y86147D01*
X528708Y89100D01*
X528319Y92052D01*
X527179Y94804D01*
X525366Y97166D01*
X523004Y98979D01*
X520252Y100119D01*
X517300Y100508D01*
X514347Y100119D01*
X511596Y98979D01*
X509234Y97166D01*
X507421Y94804D01*
X506281Y92052D01*
X505892Y89100D01*
X506281Y86147D01*
X507421Y83396D01*
X509234Y81034D01*
X511596Y79221D01*
X513523Y78423D01*
X513554Y78181D01*
Y77140D01*
X510315Y75798D01*
X507422Y73578D01*
X505202Y70685D01*
X503806Y67316D01*
X503665Y66240D01*
X517300D01*
Y63700D01*
X519840D01*
Y50065D01*
X520916Y50206D01*
X524285Y51602D01*
X527178Y53822D01*
X529398Y56715D01*
X530740Y59954D01*
X531781D01*
X532023Y59923D01*
X532821Y57996D01*
X534634Y55634D01*
X536996Y53821D01*
X539748Y52681D01*
X542700Y52292D01*
X545653Y52681D01*
X548404Y53821D01*
X550766Y55634D01*
X551112Y56084D01*
X552314Y55675D01*
Y7686D01*
X7686D01*
Y610000D01*
X7686Y610000D01*
X7686Y610000D01*
Y610000D01*
Y622314D01*
X552314D01*
Y556985D01*
D02*
G37*
G36*
X291950Y429550D02*
Y404150D01*
Y378750D01*
Y353350D01*
Y327950D01*
Y302550D01*
Y277150D01*
Y251750D01*
Y226350D01*
Y200950D01*
Y175550D01*
Y150150D01*
Y124750D01*
Y99350D01*
Y73950D01*
Y48550D01*
Y48455D01*
X291050Y47558D01*
X268850Y47637D01*
Y48550D01*
Y73950D01*
Y99350D01*
Y124750D01*
Y150150D01*
Y175550D01*
Y200950D01*
Y226350D01*
Y251750D01*
Y277150D01*
Y302550D01*
Y327950D01*
Y353350D01*
Y378750D01*
Y404150D01*
Y429550D01*
Y431000D01*
X291950D01*
Y429550D01*
D02*
G37*
%LPC*%
G36*
X517300Y354508D02*
X514347Y354119D01*
X511596Y352979D01*
X509234Y351166D01*
X507421Y348804D01*
X506281Y346053D01*
X505892Y343100D01*
X506281Y340148D01*
X507421Y337396D01*
X509234Y335034D01*
X511596Y333221D01*
X514347Y332081D01*
X517300Y331692D01*
X520252Y332081D01*
X523004Y333221D01*
X525366Y335034D01*
X527179Y337396D01*
X528319Y340148D01*
X528708Y343100D01*
X528319Y346053D01*
X527179Y348804D01*
X525366Y351166D01*
X523004Y352979D01*
X520252Y354119D01*
X517300Y354508D01*
D02*
G37*
G36*
X385535Y390160D02*
X358265D01*
X358406Y389084D01*
X359802Y385715D01*
X362022Y382822D01*
X364872Y380635D01*
Y379365D01*
X362022Y377178D01*
X359802Y374285D01*
X358406Y370915D01*
X358265Y369840D01*
X385535D01*
X385393Y370915D01*
X383998Y374285D01*
X381778Y377178D01*
X378928Y379365D01*
Y380635D01*
X381778Y382822D01*
X383998Y385715D01*
X385393Y389084D01*
X385535Y390160D01*
D02*
G37*
G36*
X517300Y379908D02*
X514347Y379519D01*
X511596Y378379D01*
X509234Y376566D01*
X507421Y374204D01*
X506281Y371452D01*
X505892Y368500D01*
X506281Y365547D01*
X507421Y362796D01*
X509234Y360434D01*
X511596Y358621D01*
X514347Y357481D01*
X517300Y357092D01*
X520252Y357481D01*
X523004Y358621D01*
X525366Y360434D01*
X527179Y362796D01*
X528319Y365547D01*
X528708Y368500D01*
X528319Y371452D01*
X527179Y374204D01*
X525366Y376566D01*
X523004Y378379D01*
X520252Y379519D01*
X517300Y379908D01*
D02*
G37*
G36*
Y125908D02*
X514347Y125519D01*
X511596Y124379D01*
X509234Y122566D01*
X507421Y120204D01*
X506281Y117452D01*
X505892Y114500D01*
X506281Y111547D01*
X507421Y108796D01*
X509234Y106434D01*
X511596Y104621D01*
X514347Y103481D01*
X517300Y103092D01*
X520252Y103481D01*
X523004Y104621D01*
X525366Y106434D01*
X527179Y108796D01*
X528319Y111547D01*
X528708Y114500D01*
X528319Y117452D01*
X527179Y120204D01*
X525366Y122566D01*
X523004Y124379D01*
X520252Y125519D01*
X517300Y125908D01*
D02*
G37*
G36*
X514760Y61160D02*
X503665D01*
X503806Y60084D01*
X505202Y56715D01*
X507422Y53822D01*
X510315Y51602D01*
X513684Y50206D01*
X514760Y50065D01*
Y61160D01*
D02*
G37*
G36*
X517300Y176708D02*
X514347Y176319D01*
X511596Y175179D01*
X509234Y173366D01*
X507421Y171004D01*
X506281Y168253D01*
X505892Y165300D01*
X506281Y162348D01*
X507421Y159596D01*
X509234Y157234D01*
X511596Y155421D01*
X514347Y154281D01*
X517300Y153892D01*
X520252Y154281D01*
X523004Y155421D01*
X525366Y157234D01*
X527179Y159596D01*
X528319Y162348D01*
X528708Y165300D01*
X528319Y168253D01*
X527179Y171004D01*
X525366Y173366D01*
X523004Y175179D01*
X520252Y176319D01*
X517300Y176708D01*
D02*
G37*
G36*
Y303708D02*
X514347Y303319D01*
X511596Y302179D01*
X509234Y300366D01*
X507421Y298004D01*
X506281Y295252D01*
X505892Y292300D01*
X506281Y289347D01*
X507421Y286596D01*
X509234Y284234D01*
X511596Y282421D01*
X514347Y281281D01*
X517300Y280892D01*
X520252Y281281D01*
X523004Y282421D01*
X525366Y284234D01*
X527179Y286596D01*
X528319Y289347D01*
X528708Y292300D01*
X528319Y295252D01*
X527179Y298004D01*
X525366Y300366D01*
X523004Y302179D01*
X520252Y303319D01*
X517300Y303708D01*
D02*
G37*
G36*
X467600Y177969D02*
X466692Y177850D01*
X443108D01*
X442200Y177969D01*
X441292Y177850D01*
X417708D01*
X416800Y177969D01*
X415892Y177850D01*
X405250D01*
Y177850D01*
X377550D01*
Y177850D01*
X354450D01*
Y177850D01*
X328880D01*
D01*
D01*
D01*
X328880Y177850D01*
X328880Y177850D01*
X326750Y177850D01*
D01*
D01*
D01*
X326750D01*
D01*
Y177850D01*
X326750Y177850D01*
X326750Y177839D01*
Y177839D01*
D01*
D01*
X326750D01*
X326750Y176952D01*
D01*
Y150150D01*
Y124750D01*
Y99350D01*
Y73950D01*
Y48550D01*
Y23150D01*
X329350D01*
X330000Y22500D01*
X480000D01*
Y30744D01*
X481093Y33384D01*
X481570Y37000D01*
X481093Y40615D01*
X480000Y43255D01*
Y56144D01*
X481093Y58784D01*
X481570Y62400D01*
X481093Y66015D01*
X480000Y68655D01*
Y81544D01*
X481093Y84184D01*
X481570Y87800D01*
X481093Y91415D01*
X480000Y94055D01*
Y106944D01*
X481093Y109584D01*
X481570Y113200D01*
X481093Y116815D01*
X480000Y119455D01*
Y132344D01*
X481093Y134984D01*
X481570Y138600D01*
X481093Y142215D01*
X480000Y144855D01*
Y157744D01*
X481093Y160384D01*
X481570Y164000D01*
X481093Y167615D01*
X480000Y170255D01*
Y177500D01*
X479650Y177850D01*
X468508D01*
X467600Y177969D01*
D02*
G37*
G36*
X166350Y600850D02*
X128650D01*
Y550398D01*
X128650Y550398D01*
X128650D01*
X128650Y550150D01*
X128000Y549500D01*
X127500D01*
Y532000D01*
X151500D01*
Y549252D01*
X151500Y549252D01*
D01*
D01*
X151500Y549500D01*
D01*
X152150Y550150D01*
X166350D01*
Y600850D01*
D02*
G37*
G36*
X110000Y570500D02*
X92500D01*
Y546500D01*
X93500D01*
Y532000D01*
X117500D01*
Y549500D01*
X110000D01*
Y570500D01*
D02*
G37*
G36*
X82500D02*
X65000D01*
Y546500D01*
X82500D01*
Y570500D01*
D02*
G37*
G36*
X110000Y604500D02*
X92500D01*
Y580500D01*
X110000D01*
Y604500D01*
D02*
G37*
G36*
X82500D02*
X65000D01*
Y580500D01*
X82500D01*
Y604500D01*
D02*
G37*
G36*
X383160Y537535D02*
X382084Y537393D01*
X378715Y535998D01*
X375822Y533778D01*
X373602Y530885D01*
X372206Y527515D01*
X372065Y526440D01*
X383160D01*
Y537535D01*
D02*
G37*
G36*
X117500Y522000D02*
X93500D01*
Y504500D01*
X117500D01*
Y522000D01*
D02*
G37*
G36*
X461735Y390160D02*
X434465D01*
X434606Y389084D01*
X436002Y385715D01*
X438222Y382822D01*
X441072Y380635D01*
Y379365D01*
X438222Y377178D01*
X436002Y374285D01*
X434606Y370915D01*
X434465Y369840D01*
X461735D01*
X461593Y370915D01*
X460198Y374285D01*
X457978Y377178D01*
X455128Y379365D01*
Y380635D01*
X457978Y382822D01*
X460198Y385715D01*
X461593Y389084D01*
X461735Y390160D01*
D02*
G37*
G36*
X151500Y522000D02*
X127500D01*
Y504500D01*
X151500D01*
Y522000D01*
D02*
G37*
G36*
X383160Y521360D02*
X372065D01*
X372206Y520284D01*
X373602Y516915D01*
X375822Y514022D01*
X378715Y511802D01*
X382084Y510406D01*
X383160Y510265D01*
Y521360D01*
D02*
G37*
G36*
X517300Y532308D02*
X514347Y531919D01*
X511596Y530779D01*
X509234Y528966D01*
X507421Y526604D01*
X506281Y523853D01*
X505892Y520900D01*
X506281Y517948D01*
X507421Y515196D01*
X509234Y512834D01*
X511596Y511021D01*
X514347Y509881D01*
X517300Y509492D01*
X520252Y509881D01*
X523004Y511021D01*
X525366Y512834D01*
X527179Y515196D01*
X528319Y517948D01*
X528708Y520900D01*
X528319Y523853D01*
X527179Y526604D01*
X525366Y528966D01*
X523004Y530779D01*
X520252Y531919D01*
X517300Y532308D01*
D02*
G37*
%LPD*%
D10*
X530390Y406210D02*
X542700Y393900D01*
X512201Y406210D02*
X530390D01*
X508991Y403000D02*
X512201Y406210D01*
X491000Y403000D02*
X508991D01*
X541500Y368500D02*
X542700D01*
D12*
X415700Y593100D02*
Y612500D01*
X343400Y392700D02*
X371900D01*
X341900Y391200D02*
X343400Y392700D01*
X341900Y366200D02*
X370800D01*
X371900Y367300D01*
X448100D02*
Y392700D01*
Y367300D02*
X470800D01*
X471900Y366200D01*
X448100Y392700D02*
X470400D01*
X471900Y391200D01*
D13*
X338400Y502399D02*
Y556200D01*
X338900Y556650D02*
X354750Y572500D01*
X542700Y520900D02*
Y546300D01*
Y550537D01*
X500137Y593100D02*
X542700Y550537D01*
X466500Y593100D02*
X500137D01*
X446900Y572500D02*
X466500Y592100D01*
Y593100D01*
X354750Y572500D02*
X446900D01*
X461900Y523900D02*
Y557500D01*
X446900Y572500D02*
X461900Y557500D01*
X338400Y502399D02*
X371900Y468900D01*
X517100Y63500D02*
X517300Y63700D01*
X371900Y367300D02*
Y392700D01*
D14*
X51800Y37000D02*
Y62400D01*
Y138600D02*
Y164000D01*
Y189400D01*
Y214800D01*
Y240200D01*
Y265600D02*
Y291000D01*
Y316400D01*
Y341800D01*
Y418000D02*
Y443400D01*
X251900Y552900D02*
X253300Y551500D01*
X51800Y392600D02*
Y418000D01*
Y367200D02*
Y392600D01*
Y341800D02*
Y367200D01*
Y240200D02*
Y265600D01*
Y113200D02*
Y138600D01*
Y87800D02*
Y113200D01*
Y62400D02*
Y87800D01*
X51900Y527000D02*
X107900D01*
X52000Y575500D02*
X72900D01*
X51900Y575400D02*
X52000Y575500D01*
X51900Y468900D02*
Y508900D01*
Y443500D02*
Y468900D01*
X51800Y443400D02*
X51900Y443500D01*
Y508900D02*
Y527000D01*
Y575400D01*
X326650Y336350D02*
X350000Y313000D01*
X326650Y336350D02*
Y490000D01*
X265150Y551500D02*
X326650Y490000D01*
X253300Y551500D02*
X265150D01*
X350000Y313000D02*
X371900Y291100D01*
X51800Y15800D02*
Y37000D01*
Y15800D02*
X279200D01*
X280000Y15000D01*
Y36600D01*
X280400Y37000D01*
X280000Y15000D02*
X365750D01*
X366750Y16000D01*
Y36250D01*
X366000Y37000D02*
X366750Y36250D01*
Y16000D02*
X505250D01*
X517750Y28500D01*
Y63250D01*
X517300Y63700D02*
X517750Y63250D01*
X51900Y468900D02*
X261850D01*
X280400Y450350D01*
Y443400D02*
Y450350D01*
D15*
X305800Y265600D02*
X322900Y248500D01*
X371900Y468900D02*
X448100D01*
X409400Y288900D02*
Y341400D01*
Y288900D02*
X456350Y241950D01*
Y228650D02*
Y241950D01*
X322900Y242900D02*
Y248500D01*
Y242900D02*
X366900Y198900D01*
X471900D01*
X486900Y213900D01*
Y252300D01*
X448100Y291100D02*
X486900Y252300D01*
D16*
X530000Y457400D02*
X542700Y444700D01*
X491900Y457400D02*
X530000D01*
X453800Y495500D02*
X491900Y457400D01*
X439500Y495500D02*
X453800D01*
X411100Y523900D02*
X439500Y495500D01*
X371900Y316500D02*
X397300Y341900D01*
Y380000D01*
X423348Y406048D01*
X473398D01*
X486650Y419300D02*
X517300D01*
X473398Y406048D02*
X486650Y419300D01*
D17*
X255000Y37000D02*
D03*
X380150Y228650D02*
D03*
X305800Y316400D02*
D03*
Y240200D02*
D03*
X26400D02*
D03*
X305800Y189400D02*
D03*
X26400Y37000D02*
D03*
Y341800D02*
D03*
X305800Y214800D02*
D03*
Y341800D02*
D03*
X26400Y189400D02*
D03*
Y316400D02*
D03*
X305800Y138600D02*
D03*
Y265600D02*
D03*
X26400Y87800D02*
D03*
Y214800D02*
D03*
X305800Y164000D02*
D03*
Y291000D02*
D03*
X26400Y62400D02*
D03*
Y367200D02*
D03*
X305800Y87800D02*
D03*
Y418000D02*
D03*
X26400Y113200D02*
D03*
Y418000D02*
D03*
X305800Y113200D02*
D03*
Y443400D02*
D03*
X26400Y265600D02*
D03*
Y392600D02*
D03*
X305800Y37000D02*
D03*
Y367200D02*
D03*
X26400Y164000D02*
D03*
Y291000D02*
D03*
X305800Y62400D02*
D03*
Y392600D02*
D03*
X26400Y138600D02*
D03*
Y443400D02*
D03*
X340600Y113200D02*
D03*
Y87800D02*
D03*
Y164000D02*
D03*
Y138600D02*
D03*
Y37000D02*
D03*
Y62400D02*
D03*
X466500Y593100D02*
D03*
X77200Y316400D02*
D03*
Y341800D02*
D03*
Y265600D02*
D03*
Y291000D02*
D03*
Y418000D02*
D03*
Y443400D02*
D03*
Y367200D02*
D03*
Y392600D02*
D03*
Y240200D02*
D03*
Y87800D02*
D03*
Y113200D02*
D03*
Y37000D02*
D03*
Y62400D02*
D03*
Y189400D02*
D03*
Y214800D02*
D03*
Y138600D02*
D03*
Y164000D02*
D03*
X391400Y138600D02*
D03*
Y87800D02*
D03*
X255000Y164000D02*
D03*
Y138600D02*
D03*
Y113200D02*
D03*
Y62400D02*
D03*
Y392600D02*
D03*
Y367200D02*
D03*
Y418000D02*
D03*
Y87800D02*
D03*
Y341800D02*
D03*
X391400Y113200D02*
D03*
Y37000D02*
D03*
Y62400D02*
D03*
X255000Y443400D02*
D03*
Y265600D02*
D03*
Y240200D02*
D03*
Y316400D02*
D03*
Y291000D02*
D03*
Y214800D02*
D03*
Y189400D02*
D03*
X391400Y164000D02*
D03*
X371900Y468900D02*
D03*
X461900Y523900D02*
D03*
D18*
X229600Y37000D02*
D03*
X204200D02*
D03*
X178800D02*
D03*
X405550Y228650D02*
D03*
X430950D02*
D03*
X456350D02*
D03*
X280400Y316400D02*
D03*
Y240200D02*
D03*
X51800D02*
D03*
X280400Y189400D02*
D03*
X51800Y37000D02*
D03*
Y341800D02*
D03*
X280400Y214800D02*
D03*
Y341800D02*
D03*
X51800Y189400D02*
D03*
Y316400D02*
D03*
X280400Y138600D02*
D03*
Y265600D02*
D03*
X51800Y87800D02*
D03*
Y214800D02*
D03*
X280400Y164000D02*
D03*
Y291000D02*
D03*
X51800Y62400D02*
D03*
Y367200D02*
D03*
X280400Y87800D02*
D03*
Y418000D02*
D03*
X51800Y113200D02*
D03*
Y418000D02*
D03*
X280400Y113200D02*
D03*
Y443400D02*
D03*
X51800Y265600D02*
D03*
Y392600D02*
D03*
X280400Y37000D02*
D03*
Y367200D02*
D03*
X51800Y164000D02*
D03*
Y291000D02*
D03*
X280400Y62400D02*
D03*
Y392600D02*
D03*
X51800Y138600D02*
D03*
Y443400D02*
D03*
X366000Y113200D02*
D03*
Y87800D02*
D03*
Y164000D02*
D03*
Y138600D02*
D03*
Y37000D02*
D03*
Y62400D02*
D03*
X251900Y578300D02*
D03*
Y552900D02*
D03*
X441100Y593100D02*
D03*
X415700D02*
D03*
X390300D02*
D03*
X102600Y316400D02*
D03*
X128000D02*
D03*
X153400D02*
D03*
X102600Y341800D02*
D03*
X128000D02*
D03*
X153400D02*
D03*
X102600Y265600D02*
D03*
X128000D02*
D03*
X153400D02*
D03*
X102600Y291000D02*
D03*
X128000D02*
D03*
X153400D02*
D03*
X102600Y418000D02*
D03*
X128000D02*
D03*
X153400D02*
D03*
X102600Y443400D02*
D03*
X128000D02*
D03*
X153400D02*
D03*
X102600Y367200D02*
D03*
X128000D02*
D03*
X153400D02*
D03*
X102600Y392600D02*
D03*
X128000D02*
D03*
X153400D02*
D03*
X102600Y240200D02*
D03*
X128000D02*
D03*
X153400D02*
D03*
X102600Y87800D02*
D03*
X128000D02*
D03*
X153400D02*
D03*
X102600Y113200D02*
D03*
X128000D02*
D03*
X153400D02*
D03*
X102600Y37000D02*
D03*
X128000D02*
D03*
X153400D02*
D03*
X102600Y62400D02*
D03*
X128000D02*
D03*
X153400D02*
D03*
X102600Y189400D02*
D03*
X128000D02*
D03*
X153400D02*
D03*
X102600Y214800D02*
D03*
X128000D02*
D03*
X153400D02*
D03*
X102600Y138600D02*
D03*
X128000D02*
D03*
X153400D02*
D03*
X102600Y164000D02*
D03*
X128000D02*
D03*
X153400D02*
D03*
X416800Y138600D02*
D03*
X442200D02*
D03*
X467600D02*
D03*
X416800Y87800D02*
D03*
X442200D02*
D03*
X467600D02*
D03*
X229600Y164000D02*
D03*
X204200D02*
D03*
X178800D02*
D03*
X229600Y138600D02*
D03*
X204200D02*
D03*
X178800D02*
D03*
X229600Y113200D02*
D03*
X204200D02*
D03*
X178800D02*
D03*
X229600Y62400D02*
D03*
X204200D02*
D03*
X178800D02*
D03*
X229600Y392600D02*
D03*
X204200D02*
D03*
X178800D02*
D03*
X229600Y367200D02*
D03*
X204200D02*
D03*
X178800D02*
D03*
X229600Y418000D02*
D03*
X204200D02*
D03*
X178800D02*
D03*
X229600Y87800D02*
D03*
X204200D02*
D03*
X178800D02*
D03*
X229600Y341800D02*
D03*
X204200D02*
D03*
X178800D02*
D03*
X416800Y113200D02*
D03*
X442200D02*
D03*
X467600D02*
D03*
X416800Y37000D02*
D03*
X442200D02*
D03*
X467600D02*
D03*
X416800Y62400D02*
D03*
X442200D02*
D03*
X467600D02*
D03*
X229600Y443400D02*
D03*
X204200D02*
D03*
X178800D02*
D03*
X229600Y265600D02*
D03*
X204200D02*
D03*
X178800D02*
D03*
X229600Y240200D02*
D03*
X204200D02*
D03*
X178800D02*
D03*
X229600Y316400D02*
D03*
X204200D02*
D03*
X178800D02*
D03*
X229600Y291000D02*
D03*
X204200D02*
D03*
X178800D02*
D03*
X229600Y214800D02*
D03*
X204200D02*
D03*
X178800D02*
D03*
X229600Y189400D02*
D03*
X204200D02*
D03*
X178800D02*
D03*
X416800Y164000D02*
D03*
X442200D02*
D03*
X467600D02*
D03*
X542700Y546300D02*
D03*
X517300Y520900D02*
D03*
X542700D02*
D03*
X517300Y495500D02*
D03*
X542700D02*
D03*
X517300Y470100D02*
D03*
X542700D02*
D03*
X517300Y444700D02*
D03*
X542700D02*
D03*
X517300Y419300D02*
D03*
X542700D02*
D03*
X517300Y393900D02*
D03*
X542700D02*
D03*
X517300Y368500D02*
D03*
X542700D02*
D03*
X517300Y343100D02*
D03*
X542700D02*
D03*
X517300Y317700D02*
D03*
X542700D02*
D03*
X517300Y292300D02*
D03*
X542700D02*
D03*
X517300Y266900D02*
D03*
X542700D02*
D03*
X517300Y241500D02*
D03*
X542700D02*
D03*
X517300Y216100D02*
D03*
X542700D02*
D03*
X517300Y190700D02*
D03*
X542700D02*
D03*
X517300Y165300D02*
D03*
X542700D02*
D03*
X517300Y139900D02*
D03*
X542700D02*
D03*
X517300Y114500D02*
D03*
X542700D02*
D03*
X517300Y89100D02*
D03*
X542700D02*
D03*
X517300Y63700D02*
D03*
X542700D02*
D03*
X371900Y443500D02*
D03*
Y418100D02*
D03*
Y392700D02*
D03*
Y367300D02*
D03*
Y341900D02*
D03*
Y316500D02*
D03*
Y291100D02*
D03*
X448100Y468900D02*
D03*
Y443500D02*
D03*
Y418100D02*
D03*
Y392700D02*
D03*
Y367300D02*
D03*
Y341900D02*
D03*
Y316500D02*
D03*
Y291100D02*
D03*
X385700Y523900D02*
D03*
X411100D02*
D03*
X436500D02*
D03*
D19*
X409400Y341400D02*
D03*
D20*
X87500Y575500D02*
D03*
X147500D02*
D03*
D21*
X122500Y527000D02*
D03*
D22*
X251900Y527500D02*
D03*
X517300Y546300D02*
D03*
D23*
X415700Y612500D02*
D03*
X340000Y255250D02*
D03*
X280000Y15000D02*
D03*
X72900Y610000D02*
D03*
X517750Y28500D02*
D03*
X51750Y15750D02*
D03*
X51900Y508900D02*
D03*
Y468900D02*
D03*
X491900Y51000D02*
D03*
Y139900D02*
D03*
X366750Y16000D02*
D03*
X339250Y202250D02*
D03*
D24*
X491900Y444700D02*
D03*
Y178000D02*
D03*
X491000Y403000D02*
D03*
X491900Y508500D02*
D03*
X491900Y292300D02*
D03*
X471900Y391200D02*
D03*
Y366200D02*
D03*
X341900Y391200D02*
D03*
Y366200D02*
D03*
X21900Y588500D02*
D03*
X31900D02*
D03*
X21900Y578500D02*
D03*
X31900D02*
D03*
X21900Y568500D02*
D03*
X31900D02*
D03*
X21900Y548500D02*
D03*
X31900D02*
D03*
X21900Y538500D02*
D03*
X31900D02*
D03*
X396900Y424700D02*
D03*
X416900D02*
D03*
X491900Y163000D02*
D03*
Y113000D02*
D03*
Y83000D02*
D03*
D25*
X75400Y612500D02*
X415700D01*
X72900Y610000D02*
X75400Y612500D01*
X72900Y575500D02*
Y610000D01*
M02*
