M48
;Layer_Color=9474304
;FILE_FORMAT=4:4
METRIC,LZ
;TYPE=PLATED
T1F00S00C0.4064
T2F00S00C0.6096
T3F00S00C0.8000
T4F00S00C0.9000
%
T01
X004919Y00083
Y00113
Y00163
Y00178
Y002923
X004719Y003662
Y003912
X003419
Y003662
X003969Y004247
X004169
X004919Y004447
X00491Y00403
X004919Y005085
X000319Y005385
Y005485
X000219
Y005385
Y005685
Y005785
Y005885
X000319
Y005785
Y005685
T02
X004094Y003414
T03
X0005175Y0001575
X0028Y00015
X0036675Y00016
X004919Y00051
X0051775Y000285
X004919Y001399
X0033925Y0020225
X0034Y0025525
X004157Y006125
X000729Y0061
X000519Y005089
Y004689
T04
X000264Y00037
X000518
Y000624
Y000878
X000264
Y000624
Y001132
X000518
Y001386
Y00164
Y001894
X000264
Y002148
Y002402
X000518
Y002148
X000772
Y002402
Y002656
X000518
X000264
Y00291
Y003164
Y003418
X000518
Y003164
Y00291
X000772
Y003164
X001026
X00128
X001534
Y003418
X00128
X001026
X000772
Y003672
X000518
X000264
Y003926
X000518
X000772
X001026
Y003672
X00128
X001534
Y003926
X00128
X001788
X002042
X002296
X00255
Y003672
X002296
X002042
X001788
Y003418
X002042
X002296
X00255
Y003164
X002296
X002042
X001788
Y00291
X001534
Y002656
X00128
X001026
Y00291
X00128
Y002402
X001026
Y002148
Y001894
X000772
Y00164
Y001386
Y001132
Y000878
X001026
X00128
X001534
Y001132
X00128
X001026
Y001386
X00128
X001534
Y00164
Y001894
X00128
Y002148
X001534
Y002402
X001788
Y002656
X002042
X002296
X00255
Y002402
X002296
X002042
Y002148
X002296
X00255
Y001894
Y00164
X002296
X002042
X001788
Y001386
X002042
X002296
X00255
Y001132
X002296
X002042
X001788
Y000878
Y000624
Y00037
X002042
X002296
X00255
Y000624
X002296
X002042
Y000878
X002296
X00255
X001534Y000624
Y00037
X00128
X001026
X000772
Y000624
X001026
X00128
Y00164
X001026
X000264
Y001386
X001788Y001894
Y002148
X002042Y001894
X002296
Y00291
X00255
X002042
X002804
Y003164
X003058
Y003418
X002804
Y003672
X003058
Y003926
X002804
X003719Y003927
Y003673
Y003419
Y003165
Y002911
X003058Y00291
Y002656
Y002402
X002804
Y002148
Y001894
X003058
Y002148
Y00164
Y001386
X002804
Y00164
Y001132
Y000878
X003058
Y001132
X003406
X00366
Y000878
X003406
Y000624
Y00037
X00366
Y000624
X003914
Y000878
X004168
X004422
X004676
Y001132
Y001386
X004422
X004168
X003914
X00366
Y00164
X003406
Y001386
X003914Y001132
X004168
X004422
Y000624
Y00037
X004168
X003914
X004168Y000624
X004676
Y00037
X005173Y000637
Y000891
Y001145
Y001399
Y001653
Y001907
Y002161
Y002415
Y002669
Y002923
Y003177
Y003431
Y003685
Y003939
X005427
Y003685
Y003431
Y003177
Y002923
Y002669
Y002415
Y002161
Y001907
Y001653
Y001399
Y001145
Y000891
Y000637
X004676Y00164
X004422
X004168
X003914
X0038015Y0022865
X0040555
X0043095
X0045635
X004481Y002911
Y003165
Y003419
Y003673
Y003927
X002804Y002656
Y000624
Y00037
X003058
Y000624
Y00418
X002804
Y004434
X003058
X003719Y004435
Y004689
Y004181
X004481
Y004435
Y004689
X004365Y005239
X004111
X003857
X003903Y005931
X004157
X004411
X004665
X004619Y005239
X005173Y005209
Y005463
X005427
Y005209
Y004955
X005173
Y004701
X005427
Y004447
X005173
Y004193
X005427
X00255Y00418
X002296
X002042
X001788
X001534
X00128
X001026
X000772
X000518
X000264
Y004434
X000518
X000772
X001026
X00128
X001534
X001788
X002042
X002296
X00255
X002519Y005275
Y005529
Y005783
M30
